<mxfile host="Electron" agent="Mozilla/5.0 (Windows NT 10.0; Win64; x64) AppleWebKit/537.36 (KHTML, like Gecko) draw.io/24.7.17 Chrome/128.0.6613.36 Electron/32.0.1 Safari/537.36" version="24.7.17" pages="2">
  <diagram id="9wWUl0xLRx5qcoXcS8Ah" name="context">
    <mxGraphModel dx="3536" dy="1450" grid="1" gridSize="10" guides="1" tooltips="1" connect="1" arrows="1" fold="1" page="1" pageScale="1" pageWidth="1169" pageHeight="827" math="0" shadow="0">
      <root>
        <mxCell id="0" />
        <mxCell id="1" parent="0" />
        <mxCell id="r4-JT6iczhbOt0IrHL-M-1" value="" style="rounded=1;whiteSpace=wrap;html=1;fillColor=#dae8fc;strokeColor=#6c8ebf;opacity=50;arcSize=4;" vertex="1" parent="1">
          <mxGeometry x="-1160" y="10" width="1150" height="810" as="geometry" />
        </mxCell>
        <object placeholders="1" c4Name="Лаборатория" c4Type="Software System" c4Description="Медицинская лаборатория" label="&lt;font style=&quot;font-size: 16px&quot;&gt;&lt;b&gt;%c4Name%&lt;/b&gt;&lt;/font&gt;&lt;div&gt;[%c4Type%]&lt;/div&gt;&lt;br&gt;&lt;div&gt;&lt;font style=&quot;font-size: 11px&quot;&gt;&lt;font color=&quot;#cccccc&quot;&gt;%c4Description%&lt;/font&gt;&lt;/div&gt;" id="f3R5jpUmocQfdX20ILgd-4">
          <mxCell style="rounded=1;whiteSpace=wrap;html=1;labelBackgroundColor=none;fillColor=#8C8496;fontColor=#ffffff;align=center;arcSize=10;strokeColor=#000000;metaEdit=1;resizable=0;points=[[0.25,0,0],[0.5,0,0],[0.75,0,0],[1,0.25,0],[1,0.5,0],[1,0.75,0],[0.75,1,0],[0.5,1,0],[0.25,1,0],[0,0.75,0],[0,0.5,0],[0,0.25,0]];strokeWidth=3;" parent="1" vertex="1">
            <mxGeometry x="-1030" y="514" width="240" height="120" as="geometry" />
          </mxCell>
        </object>
        <object placeholders="1" c4Name="Клиент" c4Type="Person" c4Description="Внешний пользователь" label="&lt;font style=&quot;font-size: 16px&quot;&gt;&lt;b&gt;%c4Name%&lt;/b&gt;&lt;/font&gt;&lt;div&gt;[%c4Type%]&lt;/div&gt;&lt;br&gt;&lt;div&gt;&lt;font style=&quot;font-size: 11px&quot;&gt;&lt;font color=&quot;#cccccc&quot;&gt;%c4Description%&lt;/font&gt;&lt;/div&gt;" id="f3R5jpUmocQfdX20ILgd-7">
          <mxCell style="html=1;fontSize=11;dashed=0;whiteSpace=wrap;fillColor=#6C6477;strokeColor=#000000;shape=mxgraph.c4.person2;align=center;metaEdit=1;points=[[0.5,0,0],[1,0.5,0],[1,0.75,0],[0.75,1,0],[0.5,1,0],[0.25,1,0],[0,0.75,0],[0,0.5,0]];resizable=0;strokeWidth=3;verticalAlign=middle;fontFamily=Helvetica;fontColor=#ffffff;" parent="1" vertex="1">
            <mxGeometry x="-660" y="34" width="200" height="180" as="geometry" />
          </mxCell>
        </object>
        <mxCell id="f3R5jpUmocQfdX20ILgd-10" style="edgeStyle=orthogonalEdgeStyle;rounded=0;orthogonalLoop=1;jettySize=auto;html=1;exitX=0.5;exitY=1;exitDx=0;exitDy=0;exitPerimeter=0;entryX=0.5;entryY=0;entryDx=0;entryDy=0;entryPerimeter=0;endSize=8;startSize=8;" parent="1" source="f3R5jpUmocQfdX20ILgd-7" edge="1">
          <mxGeometry relative="1" as="geometry">
            <Array as="points">
              <mxPoint x="-560" y="342" />
              <mxPoint x="-561" y="360" />
            </Array>
            <mxPoint x="-560" y="360" as="targetPoint" />
          </mxGeometry>
        </mxCell>
        <object placeholders="1" c4Name="Web Portal" c4Type="Container" c4Technology="PHP, React.js" c4Description="Портал для записи пациентов" label="&lt;font style=&quot;font-size: 16px&quot;&gt;&lt;b&gt;%c4Name%&lt;/b&gt;&lt;/font&gt;&lt;div&gt;[%c4Type%:&amp;nbsp;%c4Technology%]&lt;/div&gt;&lt;br&gt;&lt;div&gt;&lt;font style=&quot;font-size: 11px&quot;&gt;&lt;font color=&quot;#E6E6E6&quot;&gt;%c4Description%&lt;/font&gt;&lt;/div&gt;" id="f3R5jpUmocQfdX20ILgd-15">
          <mxCell style="shape=mxgraph.c4.webBrowserContainer2;whiteSpace=wrap;html=1;boundedLbl=1;rounded=0;labelBackgroundColor=none;strokeColor=#000000;fillColor=#23A2D9;strokeColor=#118ACD;strokeColor2=#0E7DAD;fontSize=12;fontColor=#ffffff;align=center;metaEdit=1;points=[[0.5,0,0],[1,0.25,0],[1,0.5,0],[1,0.75,0],[0.5,1,0],[0,0.75,0],[0,0.5,0],[0,0.25,0]];resizable=0;strokeWidth=3;" parent="1" vertex="1">
            <mxGeometry x="-259.99999999999994" y="360" width="240" height="160" as="geometry" />
          </mxCell>
        </object>
        <mxCell id="f3R5jpUmocQfdX20ILgd-16" style="edgeStyle=orthogonalEdgeStyle;rounded=0;orthogonalLoop=1;jettySize=auto;html=1;exitX=0.5;exitY=1;exitDx=0;exitDy=0;exitPerimeter=0;entryX=0.5;entryY=0;entryDx=0;entryDy=0;entryPerimeter=0;endSize=8;startSize=8;" parent="1" source="f3R5jpUmocQfdX20ILgd-7" target="f3R5jpUmocQfdX20ILgd-15" edge="1">
          <mxGeometry relative="1" as="geometry" />
        </mxCell>
        <object placeholders="1" c4Name="Внутренний пользователь" c4Type="Person" c4Description="Сотрудник ресепшн / врач / администратор" label="&lt;font style=&quot;font-size: 16px&quot;&gt;&lt;b&gt;%c4Name%&lt;/b&gt;&lt;/font&gt;&lt;div&gt;[%c4Type%]&lt;/div&gt;&lt;br&gt;&lt;div&gt;&lt;font style=&quot;font-size: 11px&quot;&gt;&lt;font color=&quot;#cccccc&quot;&gt;%c4Description%&lt;/font&gt;&lt;/div&gt;" id="f3R5jpUmocQfdX20ILgd-27">
          <mxCell style="html=1;fontSize=11;dashed=0;whiteSpace=wrap;fillColor=#083F75;strokeColor=#000000;fontColor=#ffffff;shape=mxgraph.c4.person2;align=center;metaEdit=1;points=[[0.5,0,0],[1,0.5,0],[1,0.75,0],[0.75,1,0],[0.5,1,0],[0.25,1,0],[0,0.75,0],[0,0.5,0]];resizable=0;strokeWidth=3;" parent="1" vertex="1">
            <mxGeometry x="-240" y="34" width="200" height="180" as="geometry" />
          </mxCell>
        </object>
        <mxCell id="f3R5jpUmocQfdX20ILgd-28" style="edgeStyle=orthogonalEdgeStyle;rounded=0;orthogonalLoop=1;jettySize=auto;html=1;exitX=0.5;exitY=1;exitDx=0;exitDy=0;exitPerimeter=0;entryX=0.5;entryY=0;entryDx=0;entryDy=0;entryPerimeter=0;endSize=8;startSize=8;" parent="1" source="f3R5jpUmocQfdX20ILgd-27" target="f3R5jpUmocQfdX20ILgd-15" edge="1">
          <mxGeometry relative="1" as="geometry" />
        </mxCell>
        <object placeholders="1" c4Name="Система Медикаменте" c4Type="Software System" c4Description="Система управления деятельностью клиники" label="&lt;font style=&quot;font-size: 16px&quot;&gt;&lt;b&gt;%c4Name%&lt;/b&gt;&lt;/font&gt;&lt;div&gt;[%c4Type%]&lt;/div&gt;&lt;br&gt;&lt;div&gt;&lt;font style=&quot;font-size: 11px&quot;&gt;&lt;font color=&quot;#cccccc&quot;&gt;%c4Description%&lt;/font&gt;&lt;/div&gt;" id="-U5PHcVeSA8pXX3x1MEY-2">
          <mxCell style="rounded=1;whiteSpace=wrap;html=1;labelBackgroundColor=none;fillColor=#1061B0;fontColor=#ffffff;align=center;arcSize=10;strokeColor=#000000;metaEdit=1;resizable=0;points=[[0.25,0,0],[0.5,0,0],[0.75,0,0],[1,0.25,0],[1,0.5,0],[1,0.75,0],[0.75,1,0],[0.5,1,0],[0.25,1,0],[0,0.75,0],[0,0.5,0],[0,0.25,0]];strokeWidth=3;verticalAlign=middle;fontFamily=Helvetica;fontSize=12;" parent="1" vertex="1">
            <mxGeometry x="-460" y="604" width="240" height="120" as="geometry" />
          </mxCell>
        </object>
        <mxCell id="-U5PHcVeSA8pXX3x1MEY-3" style="edgeStyle=orthogonalEdgeStyle;rounded=0;orthogonalLoop=1;jettySize=auto;html=1;exitX=0.5;exitY=1;exitDx=0;exitDy=0;exitPerimeter=0;entryX=0.5;entryY=0;entryDx=0;entryDy=0;entryPerimeter=0;" parent="1" source="f3R5jpUmocQfdX20ILgd-15" target="-U5PHcVeSA8pXX3x1MEY-2" edge="1">
          <mxGeometry relative="1" as="geometry">
            <Array as="points">
              <mxPoint x="-140" y="554" />
              <mxPoint x="-340" y="554" />
            </Array>
          </mxGeometry>
        </mxCell>
        <mxCell id="-U5PHcVeSA8pXX3x1MEY-5" style="edgeStyle=orthogonalEdgeStyle;rounded=0;orthogonalLoop=1;jettySize=auto;html=1;exitX=0.5;exitY=1;exitDx=0;exitDy=0;exitPerimeter=0;entryX=0.5;entryY=0;entryDx=0;entryDy=0;entryPerimeter=0;" parent="1" source="-U5PHcVeSA8pXX3x1MEY-7" target="-U5PHcVeSA8pXX3x1MEY-2" edge="1">
          <mxGeometry relative="1" as="geometry">
            <mxPoint x="-560" y="480" as="sourcePoint" />
            <Array as="points">
              <mxPoint x="-560" y="554" />
              <mxPoint x="-340" y="554" />
            </Array>
          </mxGeometry>
        </mxCell>
        <mxCell id="-U5PHcVeSA8pXX3x1MEY-6" style="edgeStyle=orthogonalEdgeStyle;rounded=0;orthogonalLoop=1;jettySize=auto;html=1;exitX=1;exitY=0.5;exitDx=0;exitDy=0;exitPerimeter=0;entryX=0;entryY=0.5;entryDx=0;entryDy=0;entryPerimeter=0;startArrow=classic;startFill=1;" parent="1" source="f3R5jpUmocQfdX20ILgd-4" target="-U5PHcVeSA8pXX3x1MEY-2" edge="1">
          <mxGeometry relative="1" as="geometry">
            <Array as="points">
              <mxPoint x="-721" y="574" />
              <mxPoint x="-721" y="664" />
            </Array>
          </mxGeometry>
        </mxCell>
        <object placeholders="1" c4Name="Mobile App" c4Type="Container" c4Technology="PHP, React.js" c4Description="Портал для записи пациентов. Мобильная версия" label="&lt;font style=&quot;font-size: 16px&quot;&gt;&lt;b&gt;%c4Name%&lt;/b&gt;&lt;/font&gt;&lt;div&gt;[%c4Type%:&amp;nbsp;%c4Technology%]&lt;/div&gt;&lt;br&gt;&lt;div&gt;&lt;font style=&quot;font-size: 11px&quot;&gt;&lt;font color=&quot;#E6E6E6&quot;&gt;%c4Description%&lt;/font&gt;&lt;/div&gt;" id="-U5PHcVeSA8pXX3x1MEY-7">
          <mxCell style="shape=mxgraph.c4.webBrowserContainer2;whiteSpace=wrap;html=1;boundedLbl=1;rounded=0;labelBackgroundColor=none;strokeColor=#000000;fillColor=#23A2D9;strokeColor=#118ACD;strokeColor2=#0E7DAD;fontSize=12;fontColor=#ffffff;align=center;metaEdit=1;points=[[0.5,0,0],[1,0.25,0],[1,0.5,0],[1,0.75,0],[0.5,1,0],[0,0.75,0],[0,0.5,0],[0,0.25,0]];resizable=0;strokeWidth=3;" parent="1" vertex="1">
            <mxGeometry x="-680" y="360" width="240" height="160" as="geometry" />
          </mxCell>
        </object>
        <object placeholders="1" c4Name="Платежный шлюз" c4Type="Software System" c4Description="Платежный шлюз" label="&lt;font style=&quot;font-size: 16px&quot;&gt;&lt;b&gt;%c4Name%&lt;/b&gt;&lt;/font&gt;&lt;div&gt;[%c4Type%]&lt;/div&gt;&lt;br&gt;&lt;div&gt;&lt;font style=&quot;font-size: 11px&quot;&gt;&lt;font color=&quot;#cccccc&quot;&gt;%c4Description%&lt;/font&gt;&lt;/div&gt;" id="-U5PHcVeSA8pXX3x1MEY-8">
          <mxCell style="rounded=1;whiteSpace=wrap;html=1;labelBackgroundColor=none;fillColor=#8C8496;fontColor=#ffffff;align=center;arcSize=10;strokeColor=#000000;metaEdit=1;resizable=0;points=[[0.25,0,0],[0.5,0,0],[0.75,0,0],[1,0.25,0],[1,0.5,0],[1,0.75,0],[0.75,1,0],[0.5,1,0],[0.25,1,0],[0,0.75,0],[0,0.5,0],[0,0.25,0]];strokeWidth=3;" parent="1" vertex="1">
            <mxGeometry x="-1030" y="674" width="240" height="120" as="geometry" />
          </mxCell>
        </object>
        <mxCell id="-U5PHcVeSA8pXX3x1MEY-9" style="edgeStyle=orthogonalEdgeStyle;rounded=0;orthogonalLoop=1;jettySize=auto;html=1;exitX=0;exitY=0.5;exitDx=0;exitDy=0;exitPerimeter=0;entryX=1;entryY=0.5;entryDx=0;entryDy=0;entryPerimeter=0;startArrow=classic;startFill=1;" parent="1" source="-U5PHcVeSA8pXX3x1MEY-2" target="-U5PHcVeSA8pXX3x1MEY-8" edge="1">
          <mxGeometry relative="1" as="geometry">
            <Array as="points">
              <mxPoint x="-721" y="664" />
              <mxPoint x="-721" y="734" />
            </Array>
          </mxGeometry>
        </mxCell>
        <mxCell id="n3-Gr5Ipa4VEBJfd6j5T-1" value="&lt;div&gt;&lt;font style=&quot;font-size: 20px;&quot;&gt;&lt;b&gt;Единая медицинская информационная система (МИС) C4.L1&lt;br&gt;&lt;/b&gt;&lt;/font&gt;&lt;/div&gt;" style="rounded=1;whiteSpace=wrap;html=1;" parent="1" vertex="1">
          <mxGeometry x="-1150" y="20" width="390" height="90" as="geometry" />
        </mxCell>
      </root>
    </mxGraphModel>
  </diagram>
  <diagram id="wr64u8Wo3S8DSV_LKaqL" name="container">
    <mxGraphModel dx="3751" dy="1582" grid="1" gridSize="10" guides="1" tooltips="1" connect="1" arrows="1" fold="1" page="1" pageScale="1" pageWidth="1169" pageHeight="827" math="0" shadow="0">
      <root>
        <mxCell id="0" />
        <mxCell id="1" parent="0" />
        <object placeholders="1" c4Name="Медикаменте" c4Type="SystemScopeBoundary" c4Application="Software System" label="&lt;font style=&quot;font-size: 16px&quot;&gt;&lt;b&gt;&lt;div style=&quot;text-align: left&quot;&gt;%c4Name%&lt;/div&gt;&lt;/b&gt;&lt;/font&gt;&lt;div style=&quot;text-align: left&quot;&gt;[%c4Application%]&lt;/div&gt;" id="P_pMKJ1h1y2e1TrNMvNP-1">
          <mxCell style="rounded=1;fontSize=11;whiteSpace=wrap;html=1;dashed=1;arcSize=20;fillColor=#DAE8FC;strokeColor=#666666;fontColor=#333333;labelBackgroundColor=none;align=left;verticalAlign=bottom;labelBorderColor=none;spacingTop=0;spacing=10;dashPattern=8 4;metaEdit=1;rotatable=0;perimeter=rectanglePerimeter;noLabel=0;labelPadding=0;allowArrows=0;connectable=0;expand=0;recursiveResize=0;editable=1;pointerEvents=0;absoluteArcSize=1;points=[[0.25,0,0],[0.5,0,0],[0.75,0,0],[1,0.25,0],[1,0.5,0],[1,0.75,0],[0.75,1,0],[0.5,1,0],[0.25,1,0],[0,0.75,0],[0,0.5,0],[0,0.25,0]];opacity=70;" parent="1" vertex="1">
            <mxGeometry x="-760" y="450" width="2380" height="2010" as="geometry" />
          </mxCell>
        </object>
        <mxCell id="AYU3_ajaV-SyMRXWtslc-5" value="&lt;div&gt;&lt;font style=&quot;font-size: 20px;&quot;&gt;&lt;b&gt;Единая медицинская информационная система (МИС) C4.L2&lt;br&gt;&lt;/b&gt;&lt;/font&gt;&lt;/div&gt;" style="rounded=0;whiteSpace=wrap;html=1;" parent="1" vertex="1">
          <mxGeometry x="-1155" y="10" width="615" height="90" as="geometry" />
        </mxCell>
        <mxCell id="AYU3_ajaV-SyMRXWtslc-46" value="" style="rounded=1;whiteSpace=wrap;html=1;strokeColor=#121212;strokeWidth=3;" parent="1" vertex="1">
          <mxGeometry x="-655" y="1730" width="2170" height="660" as="geometry" />
        </mxCell>
        <mxCell id="AYU3_ajaV-SyMRXWtslc-44" value="" style="rounded=1;whiteSpace=wrap;html=1;strokeColor=#121212;strokeWidth=1;align=center;verticalAlign=middle;fontFamily=Helvetica;fontSize=12;fontColor=default;fillColor=default;" parent="1" vertex="1">
          <mxGeometry x="1085" y="1850" width="340" height="250" as="geometry" />
        </mxCell>
        <mxCell id="5PgPSH_vX1xo0LWpRoqR-2" value="" style="rounded=1;whiteSpace=wrap;html=1;strokeColor=#121212;strokeWidth=1;align=center;verticalAlign=middle;fontFamily=Helvetica;fontSize=12;fontColor=default;fillColor=default;" parent="1" vertex="1">
          <mxGeometry x="-650" y="1080" width="650" height="455" as="geometry" />
        </mxCell>
        <mxCell id="P_pMKJ1h1y2e1TrNMvNP-3" value="" style="rounded=1;whiteSpace=wrap;html=1;strokeColor=#121212;strokeWidth=1;align=center;verticalAlign=middle;fontFamily=Helvetica;fontSize=12;fontColor=default;fillColor=default;" parent="1" vertex="1">
          <mxGeometry x="826" y="1085" width="320" height="445" as="geometry" />
        </mxCell>
        <mxCell id="P_pMKJ1h1y2e1TrNMvNP-9" value="" style="rounded=1;whiteSpace=wrap;html=1;strokeColor=#121212;strokeWidth=1;align=center;verticalAlign=middle;fontFamily=Helvetica;fontSize=12;fontColor=default;fillColor=default;" parent="1" vertex="1">
          <mxGeometry x="460" y="1085" width="320" height="445" as="geometry" />
        </mxCell>
        <mxCell id="P_pMKJ1h1y2e1TrNMvNP-14" style="edgeStyle=orthogonalEdgeStyle;rounded=0;orthogonalLoop=1;jettySize=auto;html=1;endSize=8;startSize=8;strokeColor=#121212;strokeWidth=3;align=center;verticalAlign=middle;fontFamily=Helvetica;fontSize=11;fontColor=default;labelBackgroundColor=default;endArrow=classic;" parent="1" source="P_pMKJ1h1y2e1TrNMvNP-16" target="P_pMKJ1h1y2e1TrNMvNP-17" edge="1">
          <mxGeometry relative="1" as="geometry" />
        </mxCell>
        <mxCell id="P_pMKJ1h1y2e1TrNMvNP-15" value="&lt;font style=&quot;font-size: 14px;&quot;&gt;[JDBC]&lt;/font&gt;" style="edgeLabel;html=1;align=center;verticalAlign=middle;resizable=0;points=[];rounded=0;strokeColor=#121212;strokeWidth=3;fontFamily=Helvetica;fontSize=11;fontColor=default;labelBackgroundColor=default;" parent="P_pMKJ1h1y2e1TrNMvNP-14" connectable="0" vertex="1">
          <mxGeometry x="0.2629" y="4" relative="1" as="geometry">
            <mxPoint x="-4" y="-13" as="offset" />
          </mxGeometry>
        </mxCell>
        <object placeholders="1" c4Name="payment-srv" c4Type="Container" c4Technology="Java Springboot" c4Description="Сервис проведения платежей" label="&lt;font style=&quot;font-size: 16px&quot;&gt;&lt;b&gt;%c4Name%&lt;/b&gt;&lt;/font&gt;&lt;div&gt;[%c4Type%: %c4Technology%]&lt;/div&gt;&lt;br&gt;&lt;div&gt;&lt;font style=&quot;font-size: 11px&quot;&gt;&lt;font color=&quot;#E6E6E6&quot;&gt;%c4Description%&lt;/font&gt;&lt;/div&gt;" id="P_pMKJ1h1y2e1TrNMvNP-16">
          <mxCell style="rounded=1;whiteSpace=wrap;html=1;fontSize=11;labelBackgroundColor=none;fillColor=#23A2D9;fontColor=#ffffff;align=center;arcSize=10;strokeColor=#121212;metaEdit=1;resizable=0;points=[[0.25,0,0],[0.5,0,0],[0.75,0,0],[1,0.25,0],[1,0.5,0],[1,0.75,0],[0.75,1,0],[0.5,1,0],[0.25,1,0],[0,0.75,0],[0,0.5,0],[0,0.25,0]];strokeWidth=2;" parent="1" vertex="1">
            <mxGeometry x="-610" y="1185" width="240" height="120" as="geometry" />
          </mxCell>
        </object>
        <object placeholders="1" c4Name="payment-db" c4Type="Container" c4Technology="PostgreSQL" c4Description="База данных для платежей" label="&lt;font style=&quot;font-size: 14px&quot;&gt;&lt;b&gt;%c4Name%&lt;/b&gt;&lt;/font&gt;&lt;div&gt;[%c4Type%:&amp;nbsp;%c4Technology%]&lt;/div&gt;&lt;br&gt;&lt;div&gt;&lt;font style=&quot;font-size: 11px&quot;&gt;&lt;font color=&quot;#E6E6E6&quot;&gt;%c4Description%&lt;/font&gt;&lt;/div&gt;" id="P_pMKJ1h1y2e1TrNMvNP-17">
          <mxCell style="shape=cylinder3;size=15;whiteSpace=wrap;html=1;boundedLbl=1;rounded=1;labelBackgroundColor=none;fillColor=#23A2D9;fontSize=11;fontColor=#ffffff;align=center;strokeColor=#121212;metaEdit=1;points=[[0.5,0,0],[1,0.25,0],[1,0.5,0],[1,0.75,0],[0.5,1,0],[0,0.75,0],[0,0.5,0],[0,0.25,0]];resizable=0;strokeWidth=2;verticalAlign=middle;arcSize=10;fontFamily=Helvetica;" parent="1" vertex="1">
            <mxGeometry x="-610" y="1378.25" width="240" height="120" as="geometry" />
          </mxCell>
        </object>
        <mxCell id="P_pMKJ1h1y2e1TrNMvNP-18" style="edgeStyle=orthogonalEdgeStyle;rounded=0;orthogonalLoop=1;jettySize=auto;html=1;exitX=0.5;exitY=1;exitDx=0;exitDy=0;exitPerimeter=0;endSize=8;startSize=8;entryX=0.5;entryY=0;entryDx=0;entryDy=0;entryPerimeter=0;strokeColor=#121212;strokeWidth=3;align=center;verticalAlign=middle;fontFamily=Helvetica;fontSize=11;fontColor=default;labelBackgroundColor=default;endArrow=classic;" parent="1" source="P_pMKJ1h1y2e1TrNMvNP-20" target="s9Bm_AKZgXoKh23RQSm5-1" edge="1">
          <mxGeometry relative="1" as="geometry">
            <mxPoint x="1530" y="630" as="targetPoint" />
          </mxGeometry>
        </mxCell>
        <mxCell id="P_pMKJ1h1y2e1TrNMvNP-19" value="&lt;i style=&quot;font-weight: 700; font-size: 14px;&quot;&gt;HTTPS&lt;/i&gt;" style="edgeLabel;html=1;align=center;verticalAlign=middle;resizable=0;points=[];fontColor=default;rounded=0;strokeColor=#121212;strokeWidth=3;fontFamily=Helvetica;fontSize=11;labelBackgroundColor=default;" parent="P_pMKJ1h1y2e1TrNMvNP-18" vertex="1" connectable="0">
          <mxGeometry x="-0.099" y="-2" relative="1" as="geometry">
            <mxPoint x="200" y="-48" as="offset" />
          </mxGeometry>
        </mxCell>
        <object placeholders="1" c4Name="Врач" c4Type="Person" c4Description="Регистрация приема" label="&lt;font style=&quot;font-size: 16px&quot;&gt;&lt;b&gt;%c4Name%&lt;/b&gt;&lt;/font&gt;&lt;div&gt;[%c4Type%]&lt;/div&gt;&lt;br&gt;&lt;div&gt;&lt;font style=&quot;font-size: 11px&quot;&gt;&lt;font color=&quot;#cccccc&quot;&gt;%c4Description%&lt;/font&gt;&lt;/div&gt;" id="P_pMKJ1h1y2e1TrNMvNP-20">
          <mxCell style="html=1;fontSize=11;dashed=0;whiteSpace=wrap;fillColor=#083F75;strokeColor=#121212;fontColor=#ffffff;shape=mxgraph.c4.person2;align=center;metaEdit=1;points=[[0.5,0,0],[1,0.5,0],[1,0.75,0],[0.75,1,0],[0.5,1,0],[0.25,1,0],[0,0.75,0],[0,0.5,0]];resizable=0;strokeWidth=3;" parent="1" vertex="1">
            <mxGeometry x="260" y="170" width="200" height="180" as="geometry" />
          </mxCell>
        </object>
        <object placeholders="1" c4Name="doctor-srv" c4Type="Container" c4Technology="Java Spring Boot" c4Description="Сервис регистрации записей пациентов и результатов приема у врача" label="&lt;font style=&quot;font-size: 16px&quot;&gt;&lt;b&gt;%c4Name%&lt;/b&gt;&lt;/font&gt;&lt;div&gt;[%c4Type%: %c4Technology%]&lt;/div&gt;&lt;br&gt;&lt;div&gt;&lt;font style=&quot;font-size: 11px&quot;&gt;&lt;font color=&quot;#E6E6E6&quot;&gt;%c4Description%&lt;/font&gt;&lt;/div&gt;" id="P_pMKJ1h1y2e1TrNMvNP-21">
          <mxCell style="rounded=1;whiteSpace=wrap;html=1;fontSize=11;labelBackgroundColor=none;fillColor=#23A2D9;fontColor=#ffffff;align=center;arcSize=10;strokeColor=#121212;metaEdit=1;resizable=0;points=[[0.25,0,0],[0.5,0,0],[0.75,0,0],[1,0.25,0],[1,0.5,0],[1,0.75,0],[0.75,1,0],[0.5,1,0],[0.25,1,0],[0,0.75,0],[0,0.5,0],[0,0.25,0]];strokeWidth=2;verticalAlign=middle;fontFamily=Helvetica;" parent="1" vertex="1">
            <mxGeometry x="866" y="1185" width="240" height="120" as="geometry" />
          </mxCell>
        </object>
        <object placeholders="1" c4Name="doctor-db" c4Type="Container" c4Technology="PostgreSQL" c4Description="База данных сервиса регистрации приёма пациента" label="&lt;font style=&quot;font-size: 16px&quot;&gt;&lt;b&gt;%c4Name%&lt;/b&gt;&lt;/font&gt;&lt;div&gt;[%c4Type%:&amp;nbsp;%c4Technology%]&lt;/div&gt;&lt;br&gt;&lt;div&gt;&lt;font style=&quot;font-size: 11px&quot;&gt;&lt;font color=&quot;#E6E6E6&quot;&gt;%c4Description%&lt;/font&gt;&lt;/div&gt;" id="P_pMKJ1h1y2e1TrNMvNP-22">
          <mxCell style="shape=cylinder3;size=15;whiteSpace=wrap;html=1;boundedLbl=1;rounded=1;labelBackgroundColor=none;fillColor=#23A2D9;fontSize=11;fontColor=#ffffff;align=center;strokeColor=#121212;metaEdit=1;points=[[0.5,0,0],[1,0.25,0],[1,0.5,0],[1,0.75,0],[0.5,1,0],[0,0.75,0],[0,0.5,0],[0,0.25,0]];resizable=0;strokeWidth=2;verticalAlign=middle;arcSize=10;fontFamily=Helvetica;" parent="1" vertex="1">
            <mxGeometry x="866" y="1378.25" width="240" height="120" as="geometry" />
          </mxCell>
        </object>
        <mxCell id="P_pMKJ1h1y2e1TrNMvNP-23" value="&lt;b&gt;&lt;font style=&quot;font-size: 16px;&quot;&gt;Группа сервисов CRM (ведение пациентов)&lt;/font&gt;&lt;/b&gt;" style="text;html=1;align=center;verticalAlign=middle;whiteSpace=wrap;rounded=0;fontSize=14;" parent="1" vertex="1">
          <mxGeometry x="520" y="1105" width="200" height="40" as="geometry" />
        </mxCell>
        <object placeholders="1" c4Name="order-srv" c4Type="Container" c4Technology="Container: Kotlin, SpringBoot" c4Description="Сервис управления заказами" label="&lt;font style=&quot;font-size: 16px&quot;&gt;&lt;b&gt;%c4Name%&lt;/b&gt;&lt;/font&gt;&lt;div&gt;[%c4Type%: %c4Technology%]&lt;/div&gt;&lt;br&gt;&lt;div&gt;&lt;font style=&quot;font-size: 11px&quot;&gt;&lt;font color=&quot;#E6E6E6&quot;&gt;%c4Description%&lt;/font&gt;&lt;/div&gt;" id="P_pMKJ1h1y2e1TrNMvNP-25">
          <mxCell style="rounded=1;whiteSpace=wrap;html=1;fontSize=11;labelBackgroundColor=none;fillColor=#23A2D9;fontColor=#ffffff;align=center;arcSize=10;strokeColor=#121212;metaEdit=1;resizable=0;points=[[0.25,0,0],[0.5,0,0],[0.75,0,0],[1,0.25,0],[1,0.5,0],[1,0.75,0],[0.75,1,0],[0.5,1,0],[0.25,1,0],[0,0.75,0],[0,0.5,0],[0,0.25,0]];strokeWidth=2;verticalAlign=middle;fontFamily=Helvetica;" parent="1" vertex="1">
            <mxGeometry x="-270" y="1185" width="240" height="120" as="geometry" />
          </mxCell>
        </object>
        <object placeholders="1" c4Name="Клиент" c4Type="Person" c4Description="Клиент" label="&lt;font style=&quot;font-size: 16px&quot;&gt;&lt;b&gt;%c4Name%&lt;/b&gt;&lt;/font&gt;&lt;div&gt;[%c4Type%]&lt;/div&gt;&lt;br&gt;&lt;div&gt;&lt;font style=&quot;font-size: 11px&quot;&gt;&lt;font color=&quot;#cccccc&quot;&gt;%c4Description%&lt;/font&gt;&lt;/div&gt;" id="P_pMKJ1h1y2e1TrNMvNP-26">
          <mxCell style="html=1;fontSize=11;dashed=0;whiteSpace=wrap;fillColor=#083F75;strokeColor=#121212;fontColor=#ffffff;shape=mxgraph.c4.person2;align=center;metaEdit=1;points=[[0.5,0,0],[1,0.5,0],[1,0.75,0],[0.75,1,0],[0.5,1,0],[0.25,1,0],[0,0.75,0],[0,0.5,0]];resizable=0;strokeWidth=3;verticalAlign=middle;fontFamily=Helvetica;" parent="1" vertex="1">
            <mxGeometry x="-670" y="170" width="200" height="180" as="geometry" />
          </mxCell>
        </object>
        <object placeholders="1" c4Name="customer-data-db" c4Type="Container" c4Technology="PostgreSQL" c4Description="База данных сервиса CRM с информацией о клиентах" label="&lt;font style=&quot;font-size: 16px&quot;&gt;&lt;b&gt;%c4Name%&lt;/b&gt;&lt;/font&gt;&lt;div&gt;[%c4Type%:&amp;nbsp;%c4Technology%]&lt;/div&gt;&lt;br&gt;&lt;div&gt;&lt;font style=&quot;font-size: 11px&quot;&gt;&lt;font color=&quot;#E6E6E6&quot;&gt;%c4Description%&lt;/font&gt;&lt;/div&gt;" id="P_pMKJ1h1y2e1TrNMvNP-29">
          <mxCell style="shape=cylinder3;size=15;whiteSpace=wrap;html=1;boundedLbl=1;rounded=1;labelBackgroundColor=none;fillColor=#23A2D9;fontSize=11;fontColor=#ffffff;align=center;strokeColor=#121212;metaEdit=1;points=[[0.5,0,0],[1,0.25,0],[1,0.5,0],[1,0.75,0],[0.5,1,0],[0,0.75,0],[0,0.5,0],[0,0.25,0]];resizable=0;strokeWidth=2;verticalAlign=middle;arcSize=10;fontFamily=Helvetica;" parent="1" vertex="1">
            <mxGeometry x="499" y="1378.25" width="240" height="120" as="geometry" />
          </mxCell>
        </object>
        <mxCell id="P_pMKJ1h1y2e1TrNMvNP-30" style="edgeStyle=orthogonalEdgeStyle;rounded=0;orthogonalLoop=1;jettySize=auto;html=1;entryX=0.5;entryY=0;entryDx=0;entryDy=0;entryPerimeter=0;exitX=0.5;exitY=1;exitDx=0;exitDy=0;exitPerimeter=0;" parent="1" target="P_pMKJ1h1y2e1TrNMvNP-29" edge="1">
          <mxGeometry relative="1" as="geometry">
            <mxPoint x="619" y="1278.25" as="sourcePoint" />
            <mxPoint x="1208.2399999999998" y="1353.25" as="targetPoint" />
          </mxGeometry>
        </mxCell>
        <mxCell id="P_pMKJ1h1y2e1TrNMvNP-31" value="&lt;div&gt;&lt;font style=&quot;font-size: 14px;&quot;&gt;[JDBC]&lt;/font&gt;&lt;/div&gt;" style="edgeLabel;html=1;align=center;verticalAlign=middle;resizable=0;points=[];" parent="P_pMKJ1h1y2e1TrNMvNP-30" connectable="0" vertex="1">
          <mxGeometry x="-0.0327" y="1" relative="1" as="geometry">
            <mxPoint x="-2" y="9" as="offset" />
          </mxGeometry>
        </mxCell>
        <object placeholders="1" c4Type="msg-broker" c4Container="Брокер сообщений" c4Technology="RabbitMQ" c4Description="Интеграция сервисов pub / sub" label="&lt;font style=&quot;font-size: 16px&quot;&gt;&lt;b&gt;%c4Type%&lt;/b&gt;&lt;/font&gt;&lt;div&gt;[%c4Container%:&amp;nbsp;%c4Technology%]&lt;/div&gt;&lt;br&gt;&lt;div&gt;&lt;font style=&quot;font-size: 11px&quot;&gt;&lt;font color=&quot;#E6E6E6&quot;&gt;%c4Description%&lt;/font&gt;&lt;/div&gt;" id="P_pMKJ1h1y2e1TrNMvNP-32">
          <mxCell style="shape=cylinder3;size=15;direction=south;whiteSpace=wrap;html=1;boundedLbl=1;rounded=1;labelBackgroundColor=none;fillColor=#23A2D9;fontSize=11;fontColor=#ffffff;align=center;strokeColor=#121212;metaEdit=1;points=[[0.5,0,0],[1,0.25,0],[1,0.5,0],[1,0.75,0],[0.5,1,0],[0,0.75,0],[0,0.5,0],[0,0.25,0]];resizable=0;strokeWidth=2;verticalAlign=middle;arcSize=10;fontFamily=Helvetica;" parent="1" vertex="1">
            <mxGeometry x="280" y="810" width="240" height="120" as="geometry" />
          </mxCell>
        </object>
        <mxCell id="P_pMKJ1h1y2e1TrNMvNP-33" style="edgeStyle=orthogonalEdgeStyle;rounded=0;orthogonalLoop=1;jettySize=auto;html=1;exitX=0.5;exitY=0;exitDx=0;exitDy=0;entryX=0.5;entryY=0;entryDx=0;entryDy=0;entryPerimeter=0;strokeWidth=3;strokeColor=#121212;startArrow=classic;startFill=1;align=center;verticalAlign=middle;fontFamily=Helvetica;fontSize=11;fontColor=default;labelBackgroundColor=default;endArrow=classic;" parent="1" source="P_pMKJ1h1y2e1TrNMvNP-9" target="P_pMKJ1h1y2e1TrNMvNP-32" edge="1">
          <mxGeometry relative="1" as="geometry">
            <mxPoint x="410" y="853.25" as="targetPoint" />
            <mxPoint x="539" y="853.25" as="sourcePoint" />
          </mxGeometry>
        </mxCell>
        <mxCell id="P_pMKJ1h1y2e1TrNMvNP-38" value="" style="rounded=1;whiteSpace=wrap;html=1;strokeColor=#121212;strokeWidth=1;align=center;verticalAlign=middle;fontFamily=Helvetica;fontSize=12;fontColor=default;fillColor=default;" parent="1" vertex="1">
          <mxGeometry x="75" y="1850" width="980" height="520" as="geometry" />
        </mxCell>
        <mxCell id="P_pMKJ1h1y2e1TrNMvNP-39" value="&lt;b&gt;&lt;font style=&quot;font-size: 16px;&quot;&gt;Подсистема Мониторинга и аудита&lt;/font&gt;&lt;/b&gt;" style="text;html=1;align=center;verticalAlign=middle;whiteSpace=wrap;rounded=0;fontSize=14;" parent="1" vertex="1">
          <mxGeometry x="421" y="1860" width="288" height="30" as="geometry" />
        </mxCell>
        <object placeholders="1" c4Name="Сервис индексирования и хранения данных" c4Type="Container" c4Technology="ElasticSearch" c4Description="Сервис индексирования и хранения данных" label="&lt;font style=&quot;font-size: 16px&quot;&gt;&lt;b&gt;%c4Name%&lt;/b&gt;&lt;/font&gt;&lt;div&gt;[%c4Type%: %c4Technology%]&lt;/div&gt;&lt;br&gt;&lt;div&gt;&lt;font style=&quot;font-size: 11px&quot;&gt;&lt;font color=&quot;#E6E6E6&quot;&gt;%c4Description%&lt;/font&gt;&lt;/div&gt;" id="P_pMKJ1h1y2e1TrNMvNP-40">
          <mxCell style="rounded=1;whiteSpace=wrap;html=1;fontSize=11;labelBackgroundColor=none;fillColor=#23A2D9;fontColor=#ffffff;align=center;arcSize=10;strokeColor=#121212;metaEdit=1;resizable=0;points=[[0.25,0,0],[0.5,0,0],[0.75,0,0],[1,0.25,0],[1,0.5,0],[1,0.75,0],[0.75,1,0],[0.5,1,0],[0.25,1,0],[0,0.75,0],[0,0.5,0],[0,0.25,0]];strokeWidth=2;verticalAlign=middle;fontFamily=Helvetica;" parent="1" vertex="1">
            <mxGeometry x="442" y="1940" width="240" height="120" as="geometry" />
          </mxCell>
        </object>
        <object placeholders="1" c4Name="БД Elasticsearch" c4Type="Container" c4Technology="PostgreSQL" c4Description="БД для записи в журнал аудита" label="&lt;font style=&quot;font-size: 16px&quot;&gt;&lt;b&gt;%c4Name%&lt;/b&gt;&lt;/font&gt;&lt;div&gt;[%c4Type%:&amp;nbsp;%c4Technology%]&lt;/div&gt;&lt;br&gt;&lt;div&gt;&lt;font style=&quot;font-size: 11px&quot;&gt;&lt;font color=&quot;#E6E6E6&quot;&gt;%c4Description%&lt;/font&gt;&lt;/div&gt;" id="P_pMKJ1h1y2e1TrNMvNP-41">
          <mxCell style="shape=cylinder3;size=15;whiteSpace=wrap;html=1;boundedLbl=1;rounded=1;labelBackgroundColor=none;fillColor=#23A2D9;fontSize=11;fontColor=#ffffff;align=center;strokeColor=#121212;metaEdit=1;points=[[0.5,0,0],[1,0.25,0],[1,0.5,0],[1,0.75,0],[0.5,1,0],[0,0.75,0],[0,0.5,0],[0,0.25,0]];resizable=0;strokeWidth=2;verticalAlign=middle;arcSize=10;fontFamily=Helvetica;" parent="1" vertex="1">
            <mxGeometry x="442" y="2200" width="240" height="120" as="geometry" />
          </mxCell>
        </object>
        <mxCell id="P_pMKJ1h1y2e1TrNMvNP-42" value="&lt;span style=&quot;font-size: 14px;&quot;&gt;[JDBC]&lt;/span&gt;" style="edgeStyle=orthogonalEdgeStyle;rounded=0;orthogonalLoop=1;jettySize=auto;html=1;exitX=0.5;exitY=1;exitDx=0;exitDy=0;exitPerimeter=0;entryX=0.5;entryY=0;entryDx=0;entryDy=0;entryPerimeter=0;strokeColor=#121212;strokeWidth=3;align=center;verticalAlign=middle;fontFamily=Helvetica;fontSize=11;fontColor=default;labelBackgroundColor=default;endArrow=classic;" parent="1" source="P_pMKJ1h1y2e1TrNMvNP-40" target="P_pMKJ1h1y2e1TrNMvNP-41" edge="1">
          <mxGeometry relative="1" as="geometry" />
        </mxCell>
        <object placeholders="1" c4Name="Kibana" c4Type="Container" c4Technology="Kibana" c4Description="Сервис дашбоодов" label="&lt;font style=&quot;font-size: 16px&quot;&gt;&lt;b&gt;%c4Name%&lt;/b&gt;&lt;/font&gt;&lt;div&gt;[%c4Type%: %c4Technology%]&lt;/div&gt;&lt;br&gt;&lt;div&gt;&lt;font style=&quot;font-size: 11px&quot;&gt;&lt;font color=&quot;#E6E6E6&quot;&gt;%c4Description%&lt;/font&gt;&lt;/div&gt;" id="P_pMKJ1h1y2e1TrNMvNP-43">
          <mxCell style="rounded=1;whiteSpace=wrap;html=1;fontSize=11;labelBackgroundColor=none;fillColor=#23A2D9;fontColor=#ffffff;align=center;arcSize=10;strokeColor=#121212;metaEdit=1;resizable=0;points=[[0.25,0,0],[0.5,0,0],[0.75,0,0],[1,0.25,0],[1,0.5,0],[1,0.75,0],[0.75,1,0],[0.5,1,0],[0.25,1,0],[0,0.75,0],[0,0.5,0],[0,0.25,0]];strokeWidth=2;verticalAlign=middle;fontFamily=Helvetica;" parent="1" vertex="1">
            <mxGeometry x="755" y="1940" width="240" height="120" as="geometry" />
          </mxCell>
        </object>
        <mxCell id="P_pMKJ1h1y2e1TrNMvNP-44" style="edgeStyle=orthogonalEdgeStyle;rounded=0;orthogonalLoop=1;jettySize=auto;html=1;entryX=0;entryY=0.5;entryDx=0;entryDy=0;entryPerimeter=0;strokeColor=#121212;strokeWidth=3;exitX=1;exitY=0.5;exitDx=0;exitDy=0;exitPerimeter=0;align=center;verticalAlign=middle;fontFamily=Helvetica;fontSize=11;fontColor=default;labelBackgroundColor=default;endArrow=classic;" parent="1" source="P_pMKJ1h1y2e1TrNMvNP-40" target="P_pMKJ1h1y2e1TrNMvNP-43" edge="1">
          <mxGeometry relative="1" as="geometry">
            <mxPoint x="685" y="2170" as="sourcePoint" />
          </mxGeometry>
        </mxCell>
        <object placeholders="1" c4Name="IT отдел" c4Type="Person" c4Description="Анализирует данные журнала логирования" label="&lt;font style=&quot;font-size: 16px&quot;&gt;&lt;b&gt;%c4Name%&lt;/b&gt;&lt;/font&gt;&lt;div&gt;[%c4Type%]&lt;/div&gt;&lt;br&gt;&lt;div&gt;&lt;font style=&quot;font-size: 11px&quot;&gt;&lt;font color=&quot;#cccccc&quot;&gt;%c4Description%&lt;/font&gt;&lt;/div&gt;" id="P_pMKJ1h1y2e1TrNMvNP-45">
          <mxCell style="html=1;fontSize=11;dashed=0;whiteSpace=wrap;fillColor=#083F75;strokeColor=#121212;fontColor=#ffffff;shape=mxgraph.c4.person2;align=center;metaEdit=1;points=[[0.5,0,0],[1,0.5,0],[1,0.75,0],[0.75,1,0],[0.5,1,0],[0.25,1,0],[0,0.75,0],[0,0.5,0]];resizable=0;strokeWidth=3;verticalAlign=middle;fontFamily=Helvetica;" parent="1" vertex="1">
            <mxGeometry x="1780" y="1926" width="200" height="180" as="geometry" />
          </mxCell>
        </object>
        <mxCell id="P_pMKJ1h1y2e1TrNMvNP-46" value="&lt;i style=&quot;font-weight: 700; font-size: 14px;&quot;&gt;&lt;font color=&quot;#121212&quot;&gt;HTTPS&lt;/font&gt;&lt;/i&gt;" style="edgeStyle=elbowEdgeStyle;rounded=0;orthogonalLoop=1;jettySize=auto;html=1;exitX=0;exitY=0.75;exitDx=0;exitDy=0;exitPerimeter=0;strokeColor=#121212;strokeWidth=3;entryX=1;entryY=0.5;entryDx=0;entryDy=0;align=center;verticalAlign=middle;fontFamily=Helvetica;fontSize=11;fontColor=default;labelBackgroundColor=default;endArrow=classic;" parent="1" source="P_pMKJ1h1y2e1TrNMvNP-45" target="AYU3_ajaV-SyMRXWtslc-46" edge="1">
          <mxGeometry x="-0.4684" y="-1" relative="1" as="geometry">
            <mxPoint as="offset" />
            <mxPoint x="1720" y="1770" as="targetPoint" />
            <Array as="points">
              <mxPoint x="1630" y="1900" />
            </Array>
          </mxGeometry>
        </mxCell>
        <mxCell id="P_pMKJ1h1y2e1TrNMvNP-48" style="edgeStyle=elbowEdgeStyle;rounded=0;orthogonalLoop=1;jettySize=auto;html=1;exitX=0.5;exitY=0;exitDx=0;exitDy=0;entryX=1;entryY=0.5;entryDx=0;entryDy=0;entryPerimeter=0;endSize=6;startSize=6;startArrow=classic;startFill=1;strokeColor=#121212;strokeWidth=3;align=center;verticalAlign=middle;fontFamily=Helvetica;fontSize=11;fontColor=default;labelBackgroundColor=default;endArrow=classic;elbow=vertical;" parent="1" source="5PgPSH_vX1xo0LWpRoqR-2" target="P_pMKJ1h1y2e1TrNMvNP-32" edge="1">
          <mxGeometry relative="1" as="geometry">
            <Array as="points">
              <mxPoint x="-20" y="1010" />
            </Array>
          </mxGeometry>
        </mxCell>
        <mxCell id="P_pMKJ1h1y2e1TrNMvNP-49" style="edgeStyle=orthogonalEdgeStyle;rounded=0;orthogonalLoop=1;jettySize=auto;html=1;exitX=1;exitY=0.5;exitDx=0;exitDy=0;exitPerimeter=0;entryX=0;entryY=0.5;entryDx=0;entryDy=0;entryPerimeter=0;endSize=6;startSize=6;strokeColor=#121212;strokeWidth=3;align=center;verticalAlign=middle;fontFamily=Helvetica;fontSize=11;fontColor=default;labelBackgroundColor=default;startArrow=classic;startFill=1;endArrow=classic;" parent="1" source="P_pMKJ1h1y2e1TrNMvNP-16" target="P_pMKJ1h1y2e1TrNMvNP-25" edge="1">
          <mxGeometry relative="1" as="geometry" />
        </mxCell>
        <mxCell id="P_pMKJ1h1y2e1TrNMvNP-50" style="rounded=0;orthogonalLoop=1;jettySize=auto;html=1;exitX=0.5;exitY=1;exitDx=0;exitDy=0;entryX=0.5;entryY=0;entryDx=0;entryDy=0;entryPerimeter=0;exitPerimeter=0;endSize=8;startSize=8;edgeStyle=orthogonalEdgeStyle;strokeColor=#121212;strokeWidth=3;align=center;verticalAlign=middle;fontFamily=Helvetica;fontSize=11;fontColor=default;labelBackgroundColor=default;endArrow=classic;" parent="1" source="P_pMKJ1h1y2e1TrNMvNP-26" target="s9Bm_AKZgXoKh23RQSm5-2" edge="1">
          <mxGeometry relative="1" as="geometry">
            <mxPoint x="-730" y="-256.25" as="sourcePoint" />
            <mxPoint x="-721" y="403.75" as="targetPoint" />
          </mxGeometry>
        </mxCell>
        <mxCell id="P_pMKJ1h1y2e1TrNMvNP-51" value="&lt;b&gt;&lt;i&gt;&lt;font color=&quot;#121212&quot; style=&quot;font-size: 14px;&quot;&gt;HTTPS&lt;/font&gt;&lt;/i&gt;&lt;/b&gt;" style="edgeLabel;html=1;align=center;verticalAlign=middle;resizable=0;points=[];fontFamily=Helvetica;fontSize=11;fontColor=default;fontStyle=1;labelBackgroundColor=default;fillColor=none;gradientColor=none;rounded=0;strokeColor=#121212;strokeWidth=3;" parent="P_pMKJ1h1y2e1TrNMvNP-50" vertex="1" connectable="0">
          <mxGeometry x="-0.7235" y="1" relative="1" as="geometry">
            <mxPoint x="-1" y="8" as="offset" />
          </mxGeometry>
        </mxCell>
        <mxCell id="P_pMKJ1h1y2e1TrNMvNP-52" style="edgeStyle=elbowEdgeStyle;rounded=0;orthogonalLoop=1;jettySize=auto;html=1;exitX=0.5;exitY=1;exitDx=0;exitDy=0;entryX=0.5;entryY=0;entryDx=0;entryDy=0;entryPerimeter=0;exitPerimeter=0;endSize=8;startSize=8;elbow=vertical;strokeColor=#121212;strokeWidth=3;align=center;verticalAlign=middle;fontFamily=Helvetica;fontSize=11;fontColor=default;labelBackgroundColor=default;endArrow=classic;" parent="1" source="GA4DXiZMXwHm8Dn9z1_f-1" target="s9Bm_AKZgXoKh23RQSm5-1" edge="1">
          <mxGeometry relative="1" as="geometry">
            <mxPoint x="925" y="-336.75" as="sourcePoint" />
            <mxPoint x="680" y="93.25" as="targetPoint" />
          </mxGeometry>
        </mxCell>
        <mxCell id="P_pMKJ1h1y2e1TrNMvNP-53" value="&lt;b&gt;&lt;i&gt;&lt;font style=&quot;font-size: 14px;&quot;&gt;HTTPS&lt;/font&gt;&lt;/i&gt;&lt;/b&gt;" style="edgeLabel;html=1;align=center;verticalAlign=middle;resizable=0;points=[];fontFamily=Helvetica;fontSize=11;fontColor=default;fontStyle=1;labelBackgroundColor=default;fillColor=none;gradientColor=none;rounded=0;strokeColor=#121212;strokeWidth=3;" parent="P_pMKJ1h1y2e1TrNMvNP-52" vertex="1" connectable="0">
          <mxGeometry x="-0.7235" y="1" relative="1" as="geometry">
            <mxPoint x="-1" y="9" as="offset" />
          </mxGeometry>
        </mxCell>
        <mxCell id="P_pMKJ1h1y2e1TrNMvNP-58" value="&lt;b style=&quot;&quot;&gt;&lt;font style=&quot;font-size: 16px;&quot;&gt;Группа сервисов Медкарта пациента&lt;/font&gt;&lt;/b&gt;" style="text;html=1;align=center;verticalAlign=middle;whiteSpace=wrap;rounded=0;fontSize=14;" parent="1" vertex="1">
          <mxGeometry x="841" y="1100" width="290" height="45" as="geometry" />
        </mxCell>
        <mxCell id="P_pMKJ1h1y2e1TrNMvNP-59" value="&lt;font style=&quot;font-size: 14px;&quot;&gt;[JDBC]&lt;/font&gt;" style="edgeStyle=orthogonalEdgeStyle;rounded=0;orthogonalLoop=1;jettySize=auto;html=1;exitX=0.5;exitY=1;exitDx=0;exitDy=0;exitPerimeter=0;entryX=0.5;entryY=0;entryDx=0;entryDy=0;entryPerimeter=0;endSize=8;startSize=8;" parent="1" source="P_pMKJ1h1y2e1TrNMvNP-21" target="P_pMKJ1h1y2e1TrNMvNP-22" edge="1">
          <mxGeometry relative="1" as="geometry" />
        </mxCell>
        <object placeholders="1" c4Name="Load balancer" c4Type="Container" c4Technology="SpringBoot" c4Description="Распределение запросов. Обеспечение горизонтального масштабирования" label="&lt;font style=&quot;font-size: 16px&quot;&gt;&lt;b&gt;%c4Name%&lt;/b&gt;&lt;/font&gt;&lt;div&gt;[%c4Type%: %c4Technology%]&lt;/div&gt;&lt;br&gt;&lt;div&gt;&lt;font style=&quot;font-size: 11px&quot;&gt;&lt;font color=&quot;#E6E6E6&quot;&gt;%c4Description%&lt;/font&gt;&lt;/div&gt;" id="P_pMKJ1h1y2e1TrNMvNP-61">
          <mxCell style="rounded=1;whiteSpace=wrap;html=1;fontSize=11;labelBackgroundColor=none;fillColor=#23A2D9;fontColor=#ffffff;align=center;arcSize=10;strokeColor=#121212;metaEdit=1;resizable=0;points=[[0.25,0,0],[0.5,0,0],[0.75,0,0],[1,0.25,0],[1,0.5,0],[1,0.75,0],[0.75,1,0],[0.5,1,0],[0.25,1,0],[0,0.75,0],[0,0.5,0],[0,0.25,0]];strokeWidth=2;verticalAlign=middle;fontFamily=Helvetica;" parent="1" vertex="1">
            <mxGeometry x="-445" y="810" width="240" height="120" as="geometry" />
          </mxCell>
        </object>
        <mxCell id="P_pMKJ1h1y2e1TrNMvNP-62" style="edgeStyle=orthogonalEdgeStyle;rounded=0;orthogonalLoop=1;jettySize=auto;html=1;exitX=0.5;exitY=1;exitDx=0;exitDy=0;exitPerimeter=0;entryX=0.5;entryY=0;entryDx=0;entryDy=0;entryPerimeter=0;endSize=8;startSize=8;strokeColor=#121212;strokeWidth=3;align=center;verticalAlign=middle;fontFamily=Helvetica;fontSize=11;fontColor=default;labelBackgroundColor=default;endArrow=classic;" parent="1" source="s9Bm_AKZgXoKh23RQSm5-1" target="P_pMKJ1h1y2e1TrNMvNP-61" edge="1">
          <mxGeometry relative="1" as="geometry">
            <mxPoint x="-451.00000000000045" y="233.75" as="sourcePoint" />
          </mxGeometry>
        </mxCell>
        <object placeholders="1" c4Name="Redis" c4Type="Container" c4Technology="Redis" c4Description="Кэширование справочных данных при проведении платежей" label="&lt;font style=&quot;font-size: 16px&quot;&gt;&lt;b&gt;%c4Name%&lt;/b&gt;&lt;/font&gt;&lt;div&gt;[%c4Type%: %c4Technology%]&lt;/div&gt;&lt;br&gt;&lt;div&gt;&lt;font style=&quot;font-size: 11px&quot;&gt;&lt;font color=&quot;#E6E6E6&quot;&gt;%c4Description%&lt;/font&gt;&lt;/div&gt;" id="P_pMKJ1h1y2e1TrNMvNP-64">
          <mxCell style="rounded=1;whiteSpace=wrap;html=1;fontSize=11;labelBackgroundColor=none;fillColor=#23A2D9;fontColor=#ffffff;align=center;arcSize=10;strokeColor=#121212;metaEdit=1;resizable=0;points=[[0.25,0,0],[0.5,0,0],[0.75,0,0],[1,0.25,0],[1,0.5,0],[1,0.75,0],[0.75,1,0],[0.5,1,0],[0.25,1,0],[0,0.75,0],[0,0.5,0],[0,0.25,0]];strokeWidth=2;verticalAlign=middle;fontFamily=Helvetica;" parent="1" vertex="1">
            <mxGeometry x="-130" y="810" width="240" height="120" as="geometry" />
          </mxCell>
        </object>
        <mxCell id="P_pMKJ1h1y2e1TrNMvNP-68" style="rounded=0;orthogonalLoop=1;jettySize=auto;html=1;exitX=0.5;exitY=1;exitDx=0;exitDy=0;exitPerimeter=0;entryX=0.5;entryY=0;entryDx=0;entryDy=0;strokeColor=#121212;strokeWidth=3;align=center;verticalAlign=middle;fontFamily=Helvetica;fontSize=11;fontColor=default;labelBackgroundColor=default;startSize=8;endArrow=classic;endSize=8;" parent="1" source="P_pMKJ1h1y2e1TrNMvNP-61" target="5PgPSH_vX1xo0LWpRoqR-2" edge="1">
          <mxGeometry relative="1" as="geometry">
            <mxPoint x="-324.9999999999991" y="1020" as="sourcePoint" />
          </mxGeometry>
        </mxCell>
        <object placeholders="1" c4Name="order-data-db" c4Type="Container" c4Technology="PostgreSQL" c4Description="База данных заказов" label="&lt;font style=&quot;font-size: 16px&quot;&gt;&lt;b&gt;%c4Name%&lt;/b&gt;&lt;/font&gt;&lt;div&gt;[%c4Type%:&amp;nbsp;%c4Technology%]&lt;/div&gt;&lt;br&gt;&lt;div&gt;&lt;font style=&quot;font-size: 11px&quot;&gt;&lt;font color=&quot;#E6E6E6&quot;&gt;%c4Description%&lt;/font&gt;&lt;/div&gt;" id="P_pMKJ1h1y2e1TrNMvNP-69">
          <mxCell style="shape=cylinder3;size=15;whiteSpace=wrap;html=1;boundedLbl=1;rounded=1;labelBackgroundColor=none;fillColor=#23A2D9;fontSize=11;fontColor=#ffffff;align=center;strokeColor=#121212;metaEdit=1;points=[[0.5,0,0],[1,0.25,0],[1,0.5,0],[1,0.75,0],[0.5,1,0],[0,0.75,0],[0,0.5,0],[0,0.25,0]];resizable=0;strokeWidth=2;verticalAlign=middle;arcSize=10;fontFamily=Helvetica;" parent="1" vertex="1">
            <mxGeometry x="-270" y="1378.25" width="240" height="120" as="geometry" />
          </mxCell>
        </object>
        <mxCell id="P_pMKJ1h1y2e1TrNMvNP-70" style="edgeStyle=orthogonalEdgeStyle;rounded=0;orthogonalLoop=1;jettySize=auto;html=1;exitX=0.5;exitY=1;exitDx=0;exitDy=0;exitPerimeter=0;entryX=0.5;entryY=0;entryDx=0;entryDy=0;entryPerimeter=0;endSize=8;startSize=8;strokeColor=#121212;strokeWidth=3;align=center;verticalAlign=middle;fontFamily=Helvetica;fontSize=11;fontColor=default;labelBackgroundColor=default;endArrow=classic;" parent="1" source="P_pMKJ1h1y2e1TrNMvNP-25" target="P_pMKJ1h1y2e1TrNMvNP-69" edge="1">
          <mxGeometry relative="1" as="geometry" />
        </mxCell>
        <mxCell id="P_pMKJ1h1y2e1TrNMvNP-71" value="&lt;font style=&quot;font-size: 14px;&quot;&gt;[JDBC]&lt;/font&gt;" style="edgeLabel;html=1;align=center;verticalAlign=middle;resizable=0;points=[];rounded=0;strokeColor=#121212;strokeWidth=3;fontFamily=Helvetica;fontSize=11;fontColor=default;labelBackgroundColor=default;" parent="P_pMKJ1h1y2e1TrNMvNP-70" vertex="1" connectable="0">
          <mxGeometry x="0.0471" y="1" relative="1" as="geometry">
            <mxPoint as="offset" />
          </mxGeometry>
        </mxCell>
        <mxCell id="P_pMKJ1h1y2e1TrNMvNP-78" style="edgeStyle=orthogonalEdgeStyle;rounded=0;orthogonalLoop=1;jettySize=auto;html=1;exitX=0.5;exitY=1;exitDx=0;exitDy=0;strokeColor=#121212;strokeWidth=3;entryX=0.5;entryY=0;entryDx=0;entryDy=0;" parent="1" source="P_pMKJ1h1y2e1TrNMvNP-3" target="AYU3_ajaV-SyMRXWtslc-46" edge="1">
          <mxGeometry relative="1" as="geometry">
            <mxPoint x="1280" y="1289.75" as="sourcePoint" />
            <mxPoint x="1280" y="1479.75" as="targetPoint" />
          </mxGeometry>
        </mxCell>
        <mxCell id="AYU3_ajaV-SyMRXWtslc-11" value="" style="edgeStyle=orthogonalEdgeStyle;rounded=0;orthogonalLoop=1;jettySize=auto;html=1;" parent="1" source="kziYnW6_qbnUJ7wEKs7E-3" target="P_pMKJ1h1y2e1TrNMvNP-29" edge="1">
          <mxGeometry relative="1" as="geometry" />
        </mxCell>
        <object placeholders="1" c4Name="CRM" c4Type="Container" c4Technology="SpringBoot" c4Description="Сервис сбора данных о клиентах" label="&lt;font style=&quot;font-size: 16px&quot;&gt;&lt;b&gt;%c4Name%&lt;/b&gt;&lt;/font&gt;&lt;div&gt;[%c4Type%: %c4Technology%]&lt;/div&gt;&lt;br&gt;&lt;div&gt;&lt;font style=&quot;font-size: 11px&quot;&gt;&lt;font color=&quot;#E6E6E6&quot;&gt;%c4Description%&lt;/font&gt;&lt;/div&gt;" id="kziYnW6_qbnUJ7wEKs7E-3">
          <mxCell style="rounded=1;whiteSpace=wrap;html=1;fontSize=11;labelBackgroundColor=none;fillColor=#23A2D9;fontColor=#ffffff;align=center;arcSize=10;strokeColor=#121212;metaEdit=1;resizable=0;points=[[0.25,0,0],[0.5,0,0],[0.75,0,0],[1,0.25,0],[1,0.5,0],[1,0.75,0],[0.75,1,0],[0.5,1,0],[0.25,1,0],[0,0.75,0],[0,0.5,0],[0,0.25,0]];strokeWidth=2;verticalAlign=middle;fontFamily=Helvetica;" parent="1" vertex="1">
            <mxGeometry x="499" y="1185" width="240" height="120" as="geometry" />
          </mxCell>
        </object>
        <object placeholders="1" c4Name="Внутренний пользователь" c4Type="Person" c4Description="Сотрудник ресепшн" label="&lt;font style=&quot;font-size: 16px&quot;&gt;&lt;b&gt;%c4Name%&lt;/b&gt;&lt;/font&gt;&lt;div&gt;[%c4Type%]&lt;/div&gt;&lt;br&gt;&lt;div&gt;&lt;font style=&quot;font-size: 11px&quot;&gt;&lt;font color=&quot;#cccccc&quot;&gt;%c4Description%&lt;/font&gt;&lt;/div&gt;" id="GA4DXiZMXwHm8Dn9z1_f-1">
          <mxCell style="html=1;fontSize=11;dashed=0;whiteSpace=wrap;fillColor=#083F75;strokeColor=#000000;fontColor=#ffffff;shape=mxgraph.c4.person2;align=center;metaEdit=1;points=[[0.5,0,0],[1,0.5,0],[1,0.75,0],[0.75,1,0],[0.5,1,0],[0.25,1,0],[0,0.75,0],[0,0.5,0]];resizable=0;strokeWidth=3;" parent="1" vertex="1">
            <mxGeometry x="-202" y="170" width="200" height="180" as="geometry" />
          </mxCell>
        </object>
        <object placeholders="1" c4Name="Лаборатория" c4Type="Software System" c4Description="Медицинская лаборатория" label="&lt;font style=&quot;font-size: 16px&quot;&gt;&lt;b&gt;%c4Name%&lt;/b&gt;&lt;/font&gt;&lt;div&gt;[%c4Type%]&lt;/div&gt;&lt;br&gt;&lt;div&gt;&lt;font style=&quot;font-size: 11px&quot;&gt;&lt;font color=&quot;#cccccc&quot;&gt;%c4Description%&lt;/font&gt;&lt;/div&gt;" id="mJ6T6XzKMnM6cuje8Zye-1">
          <mxCell style="rounded=1;whiteSpace=wrap;html=1;labelBackgroundColor=none;fillColor=#8C8496;fontColor=#ffffff;align=center;arcSize=10;strokeColor=#000000;metaEdit=1;resizable=0;points=[[0.25,0,0],[0.5,0,0],[0.75,0,0],[1,0.25,0],[1,0.5,0],[1,0.75,0],[0.75,1,0],[0.5,1,0],[0.25,1,0],[0,0.75,0],[0,0.5,0],[0,0.25,0]];strokeWidth=3;verticalAlign=middle;fontFamily=Helvetica;fontSize=12;" parent="1" vertex="1">
            <mxGeometry x="1760" y="1175" width="240" height="120" as="geometry" />
          </mxCell>
        </object>
        <object placeholders="1" c4Name="Web Portal" c4Type="Container" c4Technology="PHP, React.js" c4Description="Портал для записи пациентов" label="&lt;font style=&quot;font-size: 16px&quot;&gt;&lt;b&gt;%c4Name%&lt;/b&gt;&lt;/font&gt;&lt;div&gt;[%c4Type%:&amp;nbsp;%c4Technology%]&lt;/div&gt;&lt;br&gt;&lt;div&gt;&lt;font style=&quot;font-size: 11px&quot;&gt;&lt;font color=&quot;#E6E6E6&quot;&gt;%c4Description%&lt;/font&gt;&lt;/div&gt;" id="s9Bm_AKZgXoKh23RQSm5-1">
          <mxCell style="shape=mxgraph.c4.webBrowserContainer2;whiteSpace=wrap;html=1;boundedLbl=1;rounded=1;labelBackgroundColor=none;strokeColor=#121212;fillColor=#23A2D9;strokeColor=#118ACD;strokeColor2=#0E7DAD;fontSize=11;fontColor=#ffffff;align=center;metaEdit=1;points=[[0.5,0,0],[1,0.25,0],[1,0.5,0],[1,0.75,0],[0.5,1,0],[0,0.75,0],[0,0.5,0],[0,0.25,0]];resizable=0;strokeWidth=2;verticalAlign=middle;arcSize=10;fontFamily=Helvetica;" parent="1" vertex="1">
            <mxGeometry x="-222" y="500" width="240" height="160" as="geometry" />
          </mxCell>
        </object>
        <object placeholders="1" c4Name="Mobile App" c4Type="Container" c4Technology="PHP, React.js" c4Description="Портал для записи пациентов. Мобильная версия" label="&lt;font style=&quot;font-size: 16px&quot;&gt;&lt;b&gt;%c4Name%&lt;/b&gt;&lt;/font&gt;&lt;div&gt;[%c4Type%:&amp;nbsp;%c4Technology%]&lt;/div&gt;&lt;br&gt;&lt;div&gt;&lt;font style=&quot;font-size: 11px&quot;&gt;&lt;font color=&quot;#E6E6E6&quot;&gt;%c4Description%&lt;/font&gt;&lt;/div&gt;" id="s9Bm_AKZgXoKh23RQSm5-2">
          <mxCell style="shape=mxgraph.c4.webBrowserContainer2;whiteSpace=wrap;html=1;boundedLbl=1;rounded=1;labelBackgroundColor=none;strokeColor=#121212;fillColor=#23A2D9;strokeColor=#118ACD;strokeColor2=#0E7DAD;fontSize=11;fontColor=#ffffff;align=center;metaEdit=1;points=[[0.5,0,0],[1,0.25,0],[1,0.5,0],[1,0.75,0],[0.5,1,0],[0,0.75,0],[0,0.5,0],[0,0.25,0]];resizable=0;strokeWidth=2;verticalAlign=middle;arcSize=10;fontFamily=Helvetica;" parent="1" vertex="1">
            <mxGeometry x="-690" y="500" width="240" height="160" as="geometry" />
          </mxCell>
        </object>
        <mxCell id="s9Bm_AKZgXoKh23RQSm5-3" style="edgeStyle=orthogonalEdgeStyle;rounded=0;orthogonalLoop=1;jettySize=auto;html=1;exitX=0.5;exitY=1;exitDx=0;exitDy=0;exitPerimeter=0;entryX=0.5;entryY=0;entryDx=0;entryDy=0;entryPerimeter=0;strokeColor=#121212;strokeWidth=3;align=center;verticalAlign=middle;fontFamily=Helvetica;fontSize=11;fontColor=default;labelBackgroundColor=default;endArrow=classic;" parent="1" source="P_pMKJ1h1y2e1TrNMvNP-26" target="s9Bm_AKZgXoKh23RQSm5-1" edge="1">
          <mxGeometry relative="1" as="geometry" />
        </mxCell>
        <object placeholders="1" c4Name="Платежный шлюз" c4Type="Software System" c4Description="Платежный шлюз" label="&lt;font style=&quot;font-size: 16px&quot;&gt;&lt;b&gt;%c4Name%&lt;/b&gt;&lt;/font&gt;&lt;div&gt;[%c4Type%]&lt;/div&gt;&lt;br&gt;&lt;div&gt;&lt;font style=&quot;font-size: 11px&quot;&gt;&lt;font color=&quot;#cccccc&quot;&gt;%c4Description%&lt;/font&gt;&lt;/div&gt;" id="5PgPSH_vX1xo0LWpRoqR-1">
          <mxCell style="rounded=1;whiteSpace=wrap;html=1;labelBackgroundColor=none;fillColor=#8C8496;fontColor=#ffffff;align=center;arcSize=10;strokeColor=#000000;metaEdit=1;resizable=0;points=[[0.25,0,0],[0.5,0,0],[0.75,0,0],[1,0.25,0],[1,0.5,0],[1,0.75,0],[0.75,1,0],[0.5,1,0],[0.25,1,0],[0,0.75,0],[0,0.5,0],[0,0.25,0]];strokeWidth=3;" parent="1" vertex="1">
            <mxGeometry x="-1110" y="1185" width="240" height="120" as="geometry" />
          </mxCell>
        </object>
        <mxCell id="5PgPSH_vX1xo0LWpRoqR-3" value="&lt;b&gt;&lt;font style=&quot;font-size: 16px;&quot;&gt;Группа сервисов&lt;/font&gt;&lt;/b&gt;&lt;div&gt;&lt;b&gt;&lt;font style=&quot;font-size: 16px;&quot;&gt;Заказ услуги&lt;/font&gt;&lt;/b&gt;&lt;/div&gt;" style="text;html=1;align=center;verticalAlign=middle;whiteSpace=wrap;rounded=0;fontSize=14;" parent="1" vertex="1">
          <mxGeometry x="-430" y="1102.5" width="210" height="40" as="geometry" />
        </mxCell>
        <object placeholders="1" c4Name="Сервис сбора логов" c4Type="Container" c4Technology="Logstash" c4Description="Сервис сбора логов" label="&lt;font style=&quot;font-size: 16px&quot;&gt;&lt;b&gt;%c4Name%&lt;/b&gt;&lt;/font&gt;&lt;div&gt;[%c4Type%: %c4Technology%]&lt;/div&gt;&lt;br&gt;&lt;div&gt;&lt;font style=&quot;font-size: 11px&quot;&gt;&lt;font color=&quot;#E6E6E6&quot;&gt;%c4Description%&lt;/font&gt;&lt;/div&gt;" id="AYU3_ajaV-SyMRXWtslc-1">
          <mxCell style="rounded=1;whiteSpace=wrap;html=1;fontSize=11;labelBackgroundColor=none;fillColor=#23A2D9;fontColor=#ffffff;align=center;arcSize=10;strokeColor=#121212;metaEdit=1;resizable=0;points=[[0.25,0,0],[0.5,0,0],[0.75,0,0],[1,0.25,0],[1,0.5,0],[1,0.75,0],[0.75,1,0],[0.5,1,0],[0.25,1,0],[0,0.75,0],[0,0.5,0],[0,0.25,0]];strokeWidth=2;verticalAlign=middle;fontFamily=Helvetica;" parent="1" vertex="1">
            <mxGeometry x="130" y="1940" width="240" height="120" as="geometry" />
          </mxCell>
        </object>
        <mxCell id="P_pMKJ1h1y2e1TrNMvNP-7" style="edgeStyle=orthogonalEdgeStyle;rounded=0;orthogonalLoop=1;jettySize=auto;html=1;exitX=0.5;exitY=1;exitDx=0;exitDy=0;strokeColor=#FF0000;strokeWidth=3;entryX=0.5;entryY=0;entryDx=0;entryDy=0;" parent="1" source="P_pMKJ1h1y2e1TrNMvNP-9" target="AYU3_ajaV-SyMRXWtslc-46" edge="1">
          <mxGeometry relative="1" as="geometry" />
        </mxCell>
        <mxCell id="AYU3_ajaV-SyMRXWtslc-3" style="edgeStyle=orthogonalEdgeStyle;rounded=0;orthogonalLoop=1;jettySize=auto;html=1;exitX=1;exitY=0.5;exitDx=0;exitDy=0;exitPerimeter=0;entryX=0;entryY=0.5;entryDx=0;entryDy=0;entryPerimeter=0;strokeColor=#121212;strokeWidth=3;align=center;verticalAlign=middle;fontFamily=Helvetica;fontSize=11;fontColor=default;labelBackgroundColor=default;endArrow=classic;" parent="1" source="AYU3_ajaV-SyMRXWtslc-1" target="P_pMKJ1h1y2e1TrNMvNP-40" edge="1">
          <mxGeometry relative="1" as="geometry">
            <mxPoint x="556" y="2070" as="sourcePoint" />
            <mxPoint x="556" y="2130" as="targetPoint" />
            <Array as="points">
              <mxPoint x="405" y="2000" />
              <mxPoint x="405" y="2000" />
            </Array>
          </mxGeometry>
        </mxCell>
        <mxCell id="AYU3_ajaV-SyMRXWtslc-4" style="edgeStyle=orthogonalEdgeStyle;rounded=0;orthogonalLoop=1;jettySize=auto;html=1;exitX=0.5;exitY=1;exitDx=0;exitDy=0;exitPerimeter=0;entryX=0.5;entryY=0;entryDx=0;entryDy=0;entryPerimeter=0;endSize=8;startSize=8;strokeColor=#121212;strokeWidth=3;align=center;verticalAlign=middle;fontFamily=Helvetica;fontSize=11;fontColor=default;labelBackgroundColor=default;endArrow=classic;" parent="1" source="s9Bm_AKZgXoKh23RQSm5-2" target="P_pMKJ1h1y2e1TrNMvNP-61" edge="1">
          <mxGeometry relative="1" as="geometry">
            <mxPoint x="-619" y="400" as="sourcePoint" />
            <mxPoint x="-920" y="574" as="targetPoint" />
          </mxGeometry>
        </mxCell>
        <mxCell id="AYU3_ajaV-SyMRXWtslc-12" style="edgeStyle=orthogonalEdgeStyle;rounded=0;orthogonalLoop=1;jettySize=auto;html=1;exitX=0.5;exitY=0;exitDx=0;exitDy=0;entryX=0.5;entryY=0;entryDx=0;entryDy=0;entryPerimeter=0;strokeWidth=3;strokeColor=#121212;startArrow=classic;startFill=1;align=center;verticalAlign=middle;fontFamily=Helvetica;fontSize=11;fontColor=default;labelBackgroundColor=default;endArrow=classic;" parent="1" source="P_pMKJ1h1y2e1TrNMvNP-3" target="P_pMKJ1h1y2e1TrNMvNP-32" edge="1">
          <mxGeometry relative="1" as="geometry">
            <mxPoint x="530" y="700.25" as="targetPoint" />
            <mxPoint x="900" y="796.25" as="sourcePoint" />
          </mxGeometry>
        </mxCell>
        <mxCell id="AYU3_ajaV-SyMRXWtslc-16" value="" style="group;rounded=1;strokeColor=#121212;strokeWidth=1;align=center;verticalAlign=middle;fontFamily=Helvetica;fontSize=12;fontColor=default;fillColor=default;container=0;" parent="1" vertex="1" connectable="0">
          <mxGeometry x="1195" y="1085" width="320" height="440" as="geometry" />
        </mxCell>
        <mxCell id="AYU3_ajaV-SyMRXWtslc-18" style="edgeStyle=orthogonalEdgeStyle;rounded=0;orthogonalLoop=1;jettySize=auto;html=1;exitX=0.5;exitY=1;exitDx=0;exitDy=0;strokeColor=#121212;strokeWidth=3;entryX=0.5;entryY=0;entryDx=0;entryDy=0;" parent="1" source="AYU3_ajaV-SyMRXWtslc-13" target="AYU3_ajaV-SyMRXWtslc-46" edge="1">
          <mxGeometry relative="1" as="geometry">
            <mxPoint x="160" y="1655" as="sourcePoint" />
            <mxPoint x="-395" y="2060" as="targetPoint" />
          </mxGeometry>
        </mxCell>
        <mxCell id="AYU3_ajaV-SyMRXWtslc-22" style="edgeStyle=orthogonalEdgeStyle;rounded=0;orthogonalLoop=1;jettySize=auto;html=1;exitX=0.5;exitY=1;exitDx=0;exitDy=0;strokeColor=#121212;strokeWidth=3;entryX=0.5;entryY=0;entryDx=0;entryDy=0;" parent="1" source="5PgPSH_vX1xo0LWpRoqR-2" target="AYU3_ajaV-SyMRXWtslc-46" edge="1">
          <mxGeometry relative="1" as="geometry">
            <mxPoint x="-90" y="1598" as="sourcePoint" />
            <mxPoint x="305" y="1718" as="targetPoint" />
          </mxGeometry>
        </mxCell>
        <mxCell id="AYU3_ajaV-SyMRXWtslc-24" style="edgeStyle=orthogonalEdgeStyle;rounded=0;orthogonalLoop=1;jettySize=auto;html=1;exitX=0.5;exitY=1;exitDx=0;exitDy=0;exitPerimeter=0;entryX=0.5;entryY=0;entryDx=0;entryDy=0;entryPerimeter=0;endSize=8;startSize=8;strokeColor=#121212;strokeWidth=3;align=center;verticalAlign=middle;fontFamily=Helvetica;fontSize=11;fontColor=default;labelBackgroundColor=default;endArrow=classic;" parent="1" source="s9Bm_AKZgXoKh23RQSm5-1" target="P_pMKJ1h1y2e1TrNMvNP-64" edge="1">
          <mxGeometry relative="1" as="geometry">
            <mxPoint x="491.5" y="550" as="sourcePoint" />
            <mxPoint x="268.5" y="700" as="targetPoint" />
          </mxGeometry>
        </mxCell>
        <mxCell id="AYU3_ajaV-SyMRXWtslc-25" style="edgeStyle=orthogonalEdgeStyle;rounded=0;orthogonalLoop=1;jettySize=auto;html=1;exitX=0.5;exitY=1;exitDx=0;exitDy=0;exitPerimeter=0;entryX=0.5;entryY=0;entryDx=0;entryDy=0;endSize=8;startSize=8;strokeColor=#121212;strokeWidth=3;align=center;verticalAlign=middle;fontFamily=Helvetica;fontSize=11;fontColor=default;labelBackgroundColor=default;endArrow=classic;" parent="1" source="P_pMKJ1h1y2e1TrNMvNP-64" target="5PgPSH_vX1xo0LWpRoqR-2" edge="1">
          <mxGeometry relative="1" as="geometry">
            <mxPoint x="348" y="550" as="sourcePoint" />
            <mxPoint x="440" y="700" as="targetPoint" />
            <Array as="points">
              <mxPoint x="-10" y="1010" />
              <mxPoint x="-325" y="1010" />
            </Array>
          </mxGeometry>
        </mxCell>
        <mxCell id="AYU3_ajaV-SyMRXWtslc-27" style="edgeStyle=orthogonalEdgeStyle;rounded=0;orthogonalLoop=1;jettySize=auto;html=1;exitX=0.5;exitY=0;exitDx=0;exitDy=0;entryX=0.5;entryY=0;entryDx=0;entryDy=0;entryPerimeter=0;strokeWidth=3;strokeColor=#121212;startArrow=classic;startFill=1;align=center;verticalAlign=middle;fontFamily=Helvetica;fontSize=11;fontColor=default;labelBackgroundColor=default;endArrow=classic;" parent="1" source="AYU3_ajaV-SyMRXWtslc-13" target="P_pMKJ1h1y2e1TrNMvNP-32" edge="1">
          <mxGeometry relative="1" as="geometry">
            <mxPoint x="895" y="770" as="targetPoint" />
            <mxPoint x="1415" y="985" as="sourcePoint" />
          </mxGeometry>
        </mxCell>
        <mxCell id="P_pMKJ1h1y2e1TrNMvNP-56" style="edgeStyle=orthogonalEdgeStyle;rounded=0;orthogonalLoop=1;jettySize=auto;html=1;exitX=1;exitY=0.5;exitDx=0;exitDy=0;exitPerimeter=0;entryX=0;entryY=0.5;entryDx=0;entryDy=0;entryPerimeter=0;endSize=8;startSize=8;strokeColor=#121212;strokeWidth=3;align=center;verticalAlign=middle;fontFamily=Helvetica;fontSize=11;fontColor=default;labelBackgroundColor=default;endArrow=classic;" parent="1" source="P_pMKJ1h1y2e1TrNMvNP-66" target="mJ6T6XzKMnM6cuje8Zye-1" edge="1">
          <mxGeometry relative="1" as="geometry" />
        </mxCell>
        <mxCell id="AYU3_ajaV-SyMRXWtslc-28" value="&lt;font style=&quot;font-size: 14px;&quot;&gt;&lt;b&gt;HTTPS (REST)&lt;/b&gt;&lt;/font&gt;" style="edgeLabel;html=1;align=center;verticalAlign=middle;resizable=0;points=[];rounded=0;strokeColor=#121212;strokeWidth=3;fontFamily=Helvetica;fontSize=11;fontColor=default;labelBackgroundColor=default;" parent="P_pMKJ1h1y2e1TrNMvNP-56" vertex="1" connectable="0">
          <mxGeometry x="0.4138" y="-1" relative="1" as="geometry">
            <mxPoint x="5" y="-21" as="offset" />
          </mxGeometry>
        </mxCell>
        <mxCell id="AYU3_ajaV-SyMRXWtslc-29" style="edgeStyle=orthogonalEdgeStyle;rounded=0;orthogonalLoop=1;jettySize=auto;html=1;exitX=0;exitY=0.5;exitDx=0;exitDy=0;exitPerimeter=0;entryX=1;entryY=0.5;entryDx=0;entryDy=0;entryPerimeter=0;endSize=8;startSize=8;strokeColor=#121212;strokeWidth=3;align=center;verticalAlign=middle;fontFamily=Helvetica;fontSize=11;fontColor=default;labelBackgroundColor=default;endArrow=classic;" parent="1" source="P_pMKJ1h1y2e1TrNMvNP-16" target="5PgPSH_vX1xo0LWpRoqR-1" edge="1">
          <mxGeometry relative="1" as="geometry" />
        </mxCell>
        <mxCell id="AYU3_ajaV-SyMRXWtslc-48" value="&lt;b style=&quot;font-size: 14px;&quot;&gt;HTTPS (REST)&lt;/b&gt;" style="edgeLabel;html=1;align=center;verticalAlign=middle;resizable=0;points=[];" parent="AYU3_ajaV-SyMRXWtslc-29" vertex="1" connectable="0">
          <mxGeometry x="0.4154" relative="1" as="geometry">
            <mxPoint x="1" as="offset" />
          </mxGeometry>
        </mxCell>
        <mxCell id="AYU3_ajaV-SyMRXWtslc-34" style="rounded=0;orthogonalLoop=1;jettySize=auto;html=1;exitX=0.5;exitY=1;exitDx=0;exitDy=0;strokeColor=#121212;strokeWidth=3;entryX=0.5;entryY=0;entryDx=0;entryDy=0;edgeStyle=orthogonalEdgeStyle;" parent="1" source="5PgPSH_vX1xo0LWpRoqR-2" target="AYU3_ajaV-SyMRXWtslc-46" edge="1">
          <mxGeometry relative="1" as="geometry">
            <mxPoint x="-315" y="1545" as="sourcePoint" />
            <mxPoint x="390" y="1860" as="targetPoint" />
          </mxGeometry>
        </mxCell>
        <mxCell id="AYU3_ajaV-SyMRXWtslc-49" value="&lt;font style=&quot;font-size: 14px;&quot;&gt;&lt;b&gt;Передача событий / логов&lt;br&gt;SSL / TLS&lt;/b&gt;&lt;/font&gt;" style="edgeLabel;html=1;align=center;verticalAlign=middle;resizable=0;points=[];labelBackgroundColor=none;" parent="AYU3_ajaV-SyMRXWtslc-34" vertex="1" connectable="0">
          <mxGeometry x="0.5082" y="-2" relative="1" as="geometry">
            <mxPoint x="118" y="-34" as="offset" />
          </mxGeometry>
        </mxCell>
        <mxCell id="AYU3_ajaV-SyMRXWtslc-36" style="rounded=0;orthogonalLoop=1;jettySize=auto;html=1;exitX=0.5;exitY=1;exitDx=0;exitDy=0;strokeColor=#121212;strokeWidth=3;entryX=0.5;entryY=0;entryDx=0;entryDy=0;edgeStyle=orthogonalEdgeStyle;" parent="1" source="P_pMKJ1h1y2e1TrNMvNP-9" target="AYU3_ajaV-SyMRXWtslc-46" edge="1">
          <mxGeometry relative="1" as="geometry">
            <mxPoint x="245" y="1510" as="sourcePoint" />
            <mxPoint x="120" y="1825" as="targetPoint" />
          </mxGeometry>
        </mxCell>
        <mxCell id="AYU3_ajaV-SyMRXWtslc-38" style="rounded=0;orthogonalLoop=1;jettySize=auto;html=1;exitX=0.5;exitY=1;exitDx=0;exitDy=0;strokeColor=#121212;strokeWidth=3;entryX=0.5;entryY=0;entryDx=0;entryDy=0;edgeStyle=orthogonalEdgeStyle;" parent="1" source="P_pMKJ1h1y2e1TrNMvNP-3" target="AYU3_ajaV-SyMRXWtslc-46" edge="1">
          <mxGeometry relative="1" as="geometry">
            <mxPoint x="1109" y="1790" as="sourcePoint" />
            <mxPoint x="984" y="2105" as="targetPoint" />
          </mxGeometry>
        </mxCell>
        <mxCell id="AYU3_ajaV-SyMRXWtslc-40" style="rounded=0;orthogonalLoop=1;jettySize=auto;html=1;exitX=0.5;exitY=1;exitDx=0;exitDy=0;strokeColor=#121212;strokeWidth=3;entryX=0.5;entryY=0;entryDx=0;entryDy=0;edgeStyle=orthogonalEdgeStyle;" parent="1" source="AYU3_ajaV-SyMRXWtslc-13" target="AYU3_ajaV-SyMRXWtslc-46" edge="1">
          <mxGeometry relative="1" as="geometry">
            <mxPoint x="1335" y="1797.5" as="sourcePoint" />
            <mxPoint x="1210" y="2112.5" as="targetPoint" />
          </mxGeometry>
        </mxCell>
        <mxCell id="5PgPSH_vX1xo0LWpRoqR-9" value="" style="rounded=1;whiteSpace=wrap;html=1;strokeColor=#121212;strokeWidth=1;align=center;verticalAlign=middle;fontFamily=Helvetica;fontSize=12;fontColor=default;fillColor=default;" parent="1" vertex="1">
          <mxGeometry x="-575" y="1850" width="620" height="520" as="geometry" />
        </mxCell>
        <mxCell id="5PgPSH_vX1xo0LWpRoqR-10" value="&lt;b&gt;&lt;font style=&quot;font-size: 16px;&quot;&gt;Подсистема Тегирования и классификации&lt;/font&gt;&lt;/b&gt;" style="text;html=1;align=center;verticalAlign=middle;whiteSpace=wrap;rounded=0;fontSize=14;" parent="1" vertex="1">
          <mxGeometry x="-395" y="1870" width="288" height="30" as="geometry" />
        </mxCell>
        <mxCell id="5PgPSH_vX1xo0LWpRoqR-11" value="" style="group;rounded=1;strokeColor=#121212;strokeWidth=2;align=center;verticalAlign=middle;arcSize=10;fontFamily=Helvetica;fontSize=11;fontColor=#ffffff;labelBackgroundColor=none;resizable=0;fillColor=#23A2D9;" parent="1" vertex="1" connectable="0">
          <mxGeometry x="-535" y="1940" width="240" height="120" as="geometry" />
        </mxCell>
        <object placeholders="1" c4Name="Openmetadata" c4Type="Container" c4Technology="Openmetadata" c4Description="Сервис тегирования и классификации данных" label="&lt;font style=&quot;font-size: 16px&quot;&gt;&lt;b&gt;%c4Name%&lt;/b&gt;&lt;/font&gt;&lt;div&gt;[%c4Type%: %c4Technology%]&lt;/div&gt;&lt;br&gt;&lt;div&gt;&lt;font style=&quot;font-size: 11px&quot;&gt;&lt;font color=&quot;#E6E6E6&quot;&gt;%c4Description%&lt;/font&gt;&lt;/div&gt;" id="5PgPSH_vX1xo0LWpRoqR-12">
          <mxCell style="rounded=1;whiteSpace=wrap;html=1;fontSize=11;labelBackgroundColor=none;fillColor=#23A2D9;fontColor=#ffffff;align=center;arcSize=10;strokeColor=#121212;metaEdit=1;resizable=0;points=[[0.25,0,0],[0.5,0,0],[0.75,0,0],[1,0.25,0],[1,0.5,0],[1,0.75,0],[0.75,1,0],[0.5,1,0],[0.25,1,0],[0,0.75,0],[0,0.5,0],[0,0.25,0]];strokeWidth=2;verticalAlign=middle;fontFamily=Helvetica;" parent="5PgPSH_vX1xo0LWpRoqR-11" vertex="1">
            <mxGeometry width="240" height="120" as="geometry" />
          </mxCell>
        </object>
        <mxCell id="5PgPSH_vX1xo0LWpRoqR-8" value="" style="shape=image;verticalLabelPosition=bottom;labelBackgroundColor=none;verticalAlign=middle;aspect=fixed;imageAspect=0;image=data:image/png,iVBORw0KGgoAAAANSUhEUgAAARgAAAEYCAYAAACHjumMAABn5ElEQVR4nOz9B7xlV3Ufjn/XPvfeV6ZLM9KojqLKqIEQSCAEAiEkkIyNMRbGxDZGjoNNYkNI/oQY27gSbJzEIIdgcEyJKX+aAQkZgwQqCDEC9TrqM6Ppvbx671m/z9lnl7X3OW+kKe/d2W/OV3pz7z1117VX3y1mRoMGDRpMB1S/C9CgQYPZi4bANGjQYNrQEJgGDRpMGxoC06BBg2lDQ2AaNGgwbWgITIMGDaYNDYFp0KDBtKEhMA0aNJg2NASmQYMG04aGwDRo0GDa0BCYBg0aTBsaAtOgQYNpQ0NgGjRoMG1oCEyDBg2mDQ2BadCgwbShITANGjSYNjQEpkGDBtOGhsA0aNBg2tAQmAYNGkwbGgLToEGDaUNDYBo0aDBtaAhMgwYNpg0NgWnQoMG0oSEwDRo0mDY0BKZBgwbThobANGjQYNrQEJgGDRpMG1r9LsD+4k/eu33KcwxgYAKgHgACcgLaRMhYYRI9ZCDkdk9uRZhoMQYngeJQQXEnM0D1gMw8i4hg9/DuZvoAshygnNFtAa2efo0+lwPodMtrirv1/TDfmdDNGO28OMIYawGDXULPXKXM+1RxLivPjbdYP69XvDcHMlLIOYfSzyfkefl9PCuvKw4rUhhFjg4XtaPhnsLcSeZ5Q4wjmWgJGEuJcEzOOBLAfALmA5gLwlwwhgAMgTBEZRMQQHOmaOlRAEUrTzJjDMA4CHvAKI5vK6rRy7CllWMzAxtBvJ5zrOsBu1pKbQfzCIh3c5dYtUjXS/eBabvJoi5KIevlmFRAi4vOZBDZljItXHSwYoy1gaFJYML0SXF5lpO7prit6EfWVWL9LvMq/bSs+MHQ/aFsnxOBmPUY0Oeo7Gs70PR9ZdeUw0lfw/pZObN7bs5Au0WY7OVQPQJlVL6cy4f0ckY2pDusFu/5nwv3c6b0F8kSmAYOcwGcpIBlBJwI4GwGjm6DFhJwPICjWoxFrYJ82clhBnHtYJ5igNeD3KgnqnkGFUQB/r0oJ7lhm4uptQOgtZRhHYCtADYS8BAYq0BYDeAJBnbva4M0OHTQEJhDHJbPAnAEgNMBPpdA5wNYTsAJSqkFBQfS6RFJgTcD7SOxmHEQkSZQC0E4Eyg5L19mQpuxAzm2A7RKMR4A434APwXwlOaQSu6pwSGMhsAcouBSAjozA70ZwMWtHK8E0TAiboEqX2YPiLAAwAIQLWuhqH95kMG7iWkFg28C8A0UXE+DQxINgTkEYKSIQtR5GYBjmejVg11cAMJJ7R7NaVTxIQg0F4RLCXQpGB+AwhMA3ZnlBXfDjwJYAWBPv8vZoCEw/cRiAk4D8HoFepUiugDAcIUjmYWcycEEkVZAn1v8DfRwTcHhdHq8m4EVxHwLgO8CWGl0PA1mGA2BmTl0AFyomK4CcDmIXjDQpaGCgDQMykEC2Q+aS8ClKDgcwoc0N6M0kbmegRsA3MnAZL+LezigITDTi2UAzgdwBYiuUkTHKW64k5kGgeaAcB6A8zKiDzLzMwxcn5fczd2Atlg1mAY0BOYgwlh8jgDoVwC8nYheQqBOcFFDVPoOIlpGoN9VhN8FeIyB23PmLwL4mrFONThIaLjzg4eMgLd1erSSFP0dEV2EmLg0OARBg0R0aabUp4joUQBv7neJZhMaDuYAQaxZ72tAdEU7p1OM226DNLGEiL6qgIcJ+C4D/wDgwX4XKmU0BGYfwSVRGQTwRiJ6dzunVzVEZRZBOxvTmQDOVES/B+bbGPifxho11u/ipYaGwOwbLmgz/b5iegMIixqyMruhY7GILiGiS5h5F0D/fwJ/EsCd/S5bKmh0MM8DzHw+EV2nlLpdgX5VE5cGhxWIaB4pXJMR3aGAbwM4n/tdqATQEJjnABG9i4h+QqT9V7J+l6dB36GI6OeyYkwA72iIzN7REJh6tAj0a0R0FxF9gogawtIgRpYRfbJF+DGAdzSLTz0aAiNgVqNXtpnuzBR9DkTn9btMDQ5hEDpE9DJS9I+K8CMAF/W7SIcaGgLjCcvRGdHnSKlbCPSifpepQVogogszRbeA8CkAR/W7PIcKDnsCw8AxAz36H0TqASL6tX6Xp0HSyEjRb2VE9wH4b9wQmsOXwJSpKfGWFvBAi+m9BCzud5kazA4Q0dFE9Bctpe4n4E39Lk8/cdgSmKLjlVJfIdAR/S5Lg1mLozKlvgHg9f0uSL9w2BEYo2/51YzoM/0uy6EInYPa/uXlXz7Fnz4vrm9QDwJ9mYBf7Hc5+oHDy5OXeaAF+gtS9L7D1Qm3IAR5j9HrlkSi1SZkGaPVIf03NAcYnqvQHiS0O0DWBtrtamsV906MMcZHGZPjwPhYjpGdQHeSy78J6HeoDMhaxd/h2uKawsxXoK8x40Zm/P7hlOLzcCIwPw/CxxXRif0uyExBcx/M+pOIMDwfWLREYcnxGY46IcO8RYQ58xUGhsvP9kGI/S6Iy8hOxq7tOUZ3A6O7c2xY1cOGVTl2bs2xe7vZ4IPK7UnM7iuzH+XuJ5dlRLeB8OsArut3kWYCs57AFJx7i/EuBfo4aHbXN89LbqIgFAXROP7UDMuWt7F0mcKCxRkGhgit9vSWoeCI5h9Z/Hnp+5xXlJ8FR7N7R44dm3NsWZfjmYcnseaJHHt25JoIFmVT2eymNkS0CBm+BsZvAPhSv8sz3ZjVEw6le+W7W0pd2+9yTBeKidnrMYbnEk48o40zXtLG4uMUFi7OtGhyKKEoz4Ijlf478QzgvFd3tKi1cVUXW9bneOrBLlY90sXuHYwsK/dQmqXogPB5gIcB/N9+F2Y6cYgNwYMDcjsy4uyWUh/rd3mmA70uY2IcGBwmvOR1A3j5GwYwNDe91V8pYOlJLSw9CTjrZR2t0/nZTeO444YJjO1hXb9ZimLufRLAzQCe6HdhpgvJEpi9GS3MubPaRF+cbZayQgzKe8Cy5S284CVtnHB6hiOOnj1hMIUYd9FVgzjzwg4eumMCD62YxLYNeZk7YfaJT8X8+yyAqwGs7XdhpgPJEpiB8anPtYHLidQ/E+l9lmcFupOMwbmEsy7s4PxLB7BwyayimxUsXKxw0c8N6r+dW3Pce8sE7rl5AqN7WOt5Zg0IrwDhQeTaIe/mfhfnYCNZAkM1LIxJ2H8yEX2JMDuIy8Q4Y/4RCi96ZQcvvnQAg3Nm0eR6nijq/8o3DeKllw/gZzeOY8W/jmNiDGh3Zk1bLFQZvowcF7LCM/0uzMFEsgSmDgTMaRN9Q2vqE0fBsRRcyqVXD+PUF86qbtpvDA4TXvHGQZz/2gE8fOcEfnbjBLauy7X/TuogoqN5El8fZ37FbErNOav4bAX8EhGd2+9yHCgmxxmLj1V4+/vnNMSlBgWhOe+SAfzaf5uHo07MtMPfbAApenFb0ZWtHtDKw79UMZsIzJwWqT/qdyEOBJyXnMvp57fxK++bo53fGkyNgUHgrf9pDs66qI1ud5YQGeBPQBgiBci/VJHs8piJRteR0YwPgHBKP8t0ICgIy7EnZzj75R286JJmO6Xni6E5hDdeM4yTlk/gxi+NaW4mZSUwEZ2ddfg91MaH+12Wg4FkCUxPsI0EnKSUek8/y3Mg6HVZ+4Bc8W+H0Gpoy37hnIs62sL2/S+NamtTykSGc/X+ydH88wys6XdZDhQJM18lWGf5oUI0mtPvsuwPJscZF7x+AFe9syEuBwqVAZe/fQgX/8KA5ghTBREWtBV9sGU4gGS5gJQJTIvKvzbhAgV6a7/Lsz8oOJeXXt7BJb842O+izCpcdNUgLryikzSRYdCvqjZelA0AxV+qSJbAMOm/jEh9HIThfpdnfzA8j3DJm2eFu84hh0t+aUgHXKaap4YI85jpj/MeKO/1uzT7j2QJDLH+ezEB5/e7LPuKPGeM7mZc9rahQy4gcTbhircP6tw3qYKY3sQ9nMENgekDWKfYeEuK+9EQEX7594dxxvnTnDvhMMe/ObuNF1/a0d7QqYIIb+t3GQ4EyRKYyfLj8n6XY1/R6zIuuKKD01/cEJeZwCveOIhjlmVamZ4kiK7MElb+J0tgOhlOBrC83+XYV7Q6hJdclrDWLjEMDhPe/B+GMXchJamPIdCZeRdH97sc+4tkCQwxLiVQUjO14F6Wv7SlncMazBzmLVI6/QOn6HLPGFYqPT2jRbIEhoHzUsvlWgzwk5Y3olE/sGx5Bk6ThUHeS49Tt0iWwIDxwn4XYV+hWoQlx6fb5CnjqBOyZJOLM3BGv8uwv0h3tCe4O8DgMGHhkuSMXrMCw3MV5i9Kc7gT0Wn9LsP+Is0WL5Vf8/pdhn3F0Fw0fi99gsqgMwKmCAIlO2qSJTB5gu6NsygDW5LIGuZxxpEsgRkdG9EOaylhtiRGShWTE/0uwb6jGOM7d23vdzH2G8kSmN27dyZHYEZ2lZuPNZh59CaBsd3pEXilFHbs3NbvYuw3kiUw23duAyWW6mtinLFrW3qi3WzA+GiOkd3pOcIoUtiweX2/i7HfSGuGCqxdv1rvbZwS8i7j2ScaAtMPrHu6h16CTd/Nu9iyZUO/i7HfSJbAbNy0nkfHRvpdjH1C1iK9v0+Dmce9t01AqbQWJGiudxybt25MT7YzSJbAjIzuLhpey6ipoJDo1jzew5Z1CS6lCWPVyi6evL+LhIaKBhFhw6a1yPP0RDuLxJrcY2BgkNatX412Ky3Xe5UR7r11st/FOGwwMcb47mdHtZI3NSiVYcOmdWhl6SYYTpbAKKV4/aa16CZmlilW0ftvn8CGVQ0XMxO464fj2LQ2R3sgvTlacDBr169ONsQBKRMYZmDr9s145LH7NaVPCZNjjM//5R6sfTIt4pgaNj3bw+3fntAhGqmh1Wrhvgd/pk3UidkyAiRLYIhAYOCn9/wYe0Z29bs4+4RCTCIFfON/j2D3jnTl60MZo3sYX/3YnjRTNADYsXM77r7/x1rHmGIQuEWyBKZo9IJz6XYnce8DP0UrsSCfYlUa2wN8+X/swciuhEfQIYjxUdbEe88OTnJXxCzLcPf9PwFRpn29UnMolUiw+UsQgYt2b7fbeOLpR7S4lBqKwb9tQ44vfXQ3RnYlutQeYig4l698bA/WPN7VnGKK2LJ1E1atedKZ1TnJRDYlkiUwRZPbZi/YyIcevVdT/tRQTIKtGxjX/+NouYtcgwPCd/7vKNY92UOrlSZxabVaePCRewK9CyWs5k2WwIQgPL3qcewZ2d3vguwXVAY8cW8XN3xuRPtsNNh3rHuqh8/82W48ft+kdmhMFdt3bMMza55wU9MQmmSXnoQJTNjmOee47Sc3JsnFFOgMEh64fVLrZG775lgTFPk8UbTTHTeM4wt/tRub1+ZJp8QgEH604qYgxk5z6n0t1YEhYQJTUncrJhWdsmHjWtxz/4qkvHslipU3ywi3Xz+uV+O1Tza+MnvDhlU9fP7Du3Hz18dAipLz1JVQKsPdD6zApijuiFKWj9LeV7tsdkNkCjJDBfdy74M/xZLFS3H8scvQ7abJBrTahO0bc/zTR3bjrJe1cd6rOzjqhFaTDQ86ATYeu2cSd/1wAmse60JR+om8sqyFVaufwAMP36W/S6Sr3i2R9JAVjU/2d9FBP7jtBlz44lfi1JOXo9frJWnmK7jkTBEeWjGpQwsWH6fwyl8YxOnntZGYX+FBQUFYVt4ziduvG8PG1Tk6AyW3lzoKbnvlEw/hJ3fdrBW8MUHRQzdhIpMsU6kd7bwSDPH3W+/4Pp5dtzo5L98YShEGhgg7tzC+fu0IvvX3I3pf68MJY3sYN3x2RNd/63rWxGU2oFgMVz/7FG758XdRDmcqRSL357j0ZCucLAdTiEWWoNhPr48htDsDuH3FTfi5y6/GwEBS+7PVoqjjwDBp8WDN412c/fIOTn1hG0cvy9BOeGvRqdCdBJ56cBKP3d3Vn3t2sia0CTKjtSjG6PYdW3H7ih9gcGBI/5buLkU989wO6HR5mGQJTHWg2cFX9kVGChOT4/jOjV/FFa95E+YMzQWn208aRf2yFmFiDFjxr+P48Q3jmDOXcNr5bSx/SRvHndJCO2Fa2p0A1j3dxcMrJvHoXZPYvYPRbpMWCVvpBhRXUObZ3YEbbvyaTsUgOJX4OgY4YfKSMoExZL1U8pY9UHaQ2YOYynSD4+NjuP5fv4rXvuoqrfztzRL7bzHhWm2g2wUe/PEk7r9tAsPzFJaelOGk5RmWHJfp78Wqf6iiIJTrn+li1aNdPPNwTyu29+zKtfOhUsDA4KFb9v1FQUy2btuE791yveZQSiJSDmYWfi/MpcxEdlAnimQJjIt2LE3UJaUvfznTXsGxFEQm5x6+d/O38YLTzsHZy89DlrheJkYxGZUinfvkmYe7eOK+SR3kNzhMWHyswnGntrD42AwLjyIccZTC4Bw1oxapvFfqUbZt6mHDMz1sWZ9rE/Pmtbk+LjmU2cSpSBSjtQxreRS33nGjHoOqEIv0uKXYXdfRHU12EpYLkyUwmrJrmsLMBU1xnKT+UX5zfVd20MOP3qOVaq+++PWYN2d+mnsVPwdImG3zHNiwOsf6VRO6rkV1izNzFyrMW0RYdFSGBUcqzDuSMDy3/BsYLpXKrQ5pd/uCS6oNGORyG5CJCdab+k+MAmMjOcZGWAcZbtuYY/umXIs5e7bn2Lkt10RP+6qQV2Z2ZiGXEqMYqzt2bcedd92KjZs3oJX5bWytcjc0FVGxNpanOG1HmIQJjOsSx0SGyvZqx2RZG7t279SxHhecd3GS5ut9hZ3ItjEKIrNrW45tG6Ed+YoJ3u4AnSHC3AUKcxcQhucROsOETof0+YIoSCJTPKPgSgoRZ3Qk17qT0V2MXdtzHbQ5PsIYHwMmRtm4DgBZQahmgVl5X1GMyTzPtY/Lhk1r0WpZjTx7Xy79i6LbSFyT7kKYLIGBs+KpsvlZdpGZDSQ6hsvfxerx1DMrsW3bZlxy0RUYnjMXnHDO031F0WZWfwMjvoxr7oOxc3PPcTqWudOfdePb0G9LeKxZlchrDA4H7mRvKMTzHbu2aZeJXbt3oNUa4Fif4nwtuEJiAC5kX07ZmyRlAqNb3lvwBDdiF2wtO1naouCUv1nW0pzMN//lSzj/hS/DaScvh1It9PIuEnY5OCBYwnC41v9gQimlHTwffvw+3H3/CmSZ0v5YFCx54Xgt449CSs6e80yWhUmWwDjnIxa+ERwqxEorn3dYUgTk7CdTi1q467478MAj9+DM08/FmWe8UA+MBg32FwVxKcbTyifux/jYhPbO1ShJBBPY61YsnBQUaXpnuOzTgWQJTKnCZWk7cvowFutwoCMjsgKVMwm2shbyXg/3Pngnnl79OF563sVYfMRRSW8V0WDmUXAomzevx4p7btM+LlmWIWtlMe2gUqTnkJb4FVLw5KXgHwqd6SFZ4U5zMFrmV6xIWotIcypWsangfa+p4FBNf5E8LsSm7//wOl6z9mkMDAz2u4oNEsHgwBCeWrUSN972HezevQst7QZBTG58lX8gxTC6KuVkUgUvCZlx7K8hpO0Gky4HIzlJK6BS6Vegv3N8UXnU69SEdp7hnRFUltGP77wZ69Y/i+Wnn4O5c+c33EyDWpiN6bs/vff21lPPPM7K5Lg0fEhAFfyxcoyy86qzcj1HpmttqS6HZsK+vMkSGK3kLZ2RmIRMRKw0yXHq3UAtI5zzGOEJkXuj+Htq9WN4ctVKLDnyaJx75vk4avExye3B1GA6QNoSuXHLetx93x3Ysm2TKsSjLFOxnTkITXEnhU7Q6GJKZrqik9GcOFmH3hmp2jQgWQJjuqVU5YreK7kY4WFQE7NkP1gcMSllHAHS3r5U7r1002038JFHHEUvPOslOHLRkvJNs9BJr8HUsERh4+b12qdly7ZNmoNptzqqYnuGGXpeKeiOsbRywg1RrpjvJA1qrEgzD0tIvIsSoaLi5dKS5Pu3XFUocl4q+VprJlRO6CrVPIXYpGj79i246dbrsWDeEVh2wik44biTtDdww9XMZpA2Me/ctV3vsPjUM49pj9xW1kKmyqkTSDka7IUc8v5X5WWlfpA5VPKSGaXO4U48rk7cSgnJEhhv6Ivb3nebkYMi/14rJhPF1kFPmsLlA4agtbK23uTtwUfu1n9LFi/V8U2FGIWGq5k1KOPXcmzcvA4rH39Acy0witm6vdAjkUccd9/cb2ntDO5ncaUSI5Rr+aNkkCyBoRo/f67EhUWXuBWlTL7B1hE1XHzkTw6S/ZDveAbxps3rae26VTj+2JN0EOXCBUdotjnVVJ2HO1qttnZZ2LR1Ix5ZeS+eXb9aE5QykXypcBUqWQ3yuYm8Wi8SiyRKHtmYHPR9hquOx7OlWWasTXvlpwnJEhgPw6mwjLl5jhiOktMgqXiDsELZuxURBVwJy7cykVLodAawfuOz2LhlHRbOPwInHn+y/hvoDM6a1BCzHa1WC6Njo3jymZV4ZvUT2r2/18t133qO1lsggZgDCS3NfvhVxyBZy5C7ryqyx2gy2vUDJIUZmRvGLyOSMUGsXPO27cC1ya0ugp2JFyRmYq9aNrlhTcTsvQ/eifsf+hmWHLkUy044GUcuOgqDg0PaESvPGy/hQwG2L0ZG92hl7dOrHtc5WvI8h8oyLSKpVugixnpksPhdgoKwxVjk9tRBXEMciVHSvEDiwrSFoxLJEhgfbEpOmQuXqiHSuhg+1qYlpNKhUiwaVIlnddqY0EVB0Bx7noWCGU75t2nLemzYvFYP5jnDc7H0qOO0YnjB3EXIWq2Gu5lBUOnfpBXyO3Zuw6rVj2PDpnUYGR3RhKYQgYp+1hn9HaXgQBdHkWOVXYY0AWGOl7pqdjpp26RQflJmYSwXwHBhM69pRKSZhvfKDSi+iEwS+WFgE/hGHU/kE/qIAaSJUEht3AvkfRz6gIuLS+1OC2Viq5GRPXjy6Ufx2BMPYXBgEEuWHIPFRxyNBfMWYuGCRW6risah7+BA74vF0ARl+86t2L5zG7Zs2YhNW9djbHRMi0RFFxbXkfUCl/bjIMSExHjwvCw7M4GxMzu6UKfkhYj6D/fzMlc6aydF1tC8XPiSZWTSJTBCKWYnejzPvYOM6TYzSAIRyTknUKCL8e8Rg4HksXiVCgUpRWES8vJPodvrYe26VViz9mkdyFDI+YsWHIEli4/BUUuWYqA9gMHBYf3sJvDy+aEg0AURmJgYw9j4mNaJbdqyAdt3bMHk5LhOvGWJSbttrEAUOVvGHEc0Hvw48BYh1I0FqhIR+90rgMPrjdhdtSzB+tKka55MlsDIyHfrW1esAnnuxCSG0JMYsFO5WK6nXJ3Yqdycspgrg0lyLUTGchCI5UQ2R7DwA3QjzYtxGZTmbliLSpu3bsSGjc9istfV+pqjFx+L45aegOOOXaYd/oq1rcwwz4e9KdxyDUqVBLvX7WLVmiexbsNqbN66iXfv2UkFh9LSXCHpNBxlFj1jtmE/PnQYUI0itmJORGwRCM2OFMkypoxslbjWAdTdQ2TGjnsWl2tQWT73TthhnmzIYMoEBk6rb3P1+JVE6T6MlWm6Z6OtIcwAIS8DB4+vvFIyNyx8F+ztlgC5t3Cg34u2WPEPy1ptqKytxaRn1z2DdRvX4P6Hf4aFC4/EnOF5mD93AebPX6id+1pZW+txyuRQ+awVrUquo+Q8CkI82Z3E7j07sWPHNuzas1MHFu7YuRXjE+NWl0KDA0P1D/MLQygLVYgL1YgwImKI5XnF5TgT99pv8fGQA6KIG6IyyVeFjSqvyBsRacZBFHAwJYLM7DpWKQgcAML0kYhYXSDU4ttn6hSpwQBFfIFX+qGSOIjipzKzcPPzZi3S4SyZS0peiFObNm/AJmwwxIS1QnJocFj/zZ0zH3PnzsO8uQt0RG/B/XRanYA7gyNmhxrnI7RlolELYjE+Xog6o9ixYytGx0Z0lPvo2B6Mjo5oBzgTGe/uzXQsUFZOYk1r6xJls9Cb2D4ruiavU7LFxgKOFjRznokCp5i6sYbod3iN190IOdxfYrXIB9DO/UXKBCacsPBKNoa0PssOJ6G084NKrjQxLSij7pUfWO6RXOFCnHKOyA9CF4oZsOfmSmUIi129PLvuuSurePYDdnRsVE+8Lca0ytq8qrSjWCvLMNAZ0ukm5gzP1fqc4vtAZxCddgcDnQG02wNaxFBFvayiE6Wnqg/BQLCMx4aMQNIULgN62mmuqhQNdPnM78nJca0jmexOYGJiQtdhbGxEm4vHJ8Y0YSm4lIKw6joZMch7yipd5ljkYFdc0hkRmJUvtiUC8SLgtruJ+8/6YdIU/WfCT1j0i6pypPFCxsJPSxJ8MuyLyePgQiTJD9gmFqm/II4dkTybWs9ZUmQiEj/D2GuKfRackxTX+xLLdwChWcEofuXKLf+lyIkirk9FH2DipFQmLBuMyW4hSuzE7pFdWrdjTnhPH0N9CzGr1cq0jiJTpa4iywqCk6GdlRxUq93RBAg5o223jzTlKAhBcbwgHt1eV7+7IAyFqFIQk15vsiAu3Mt71Ot20c274JyDiSdd7GUX6qz7WSZqXxVj6vuPOOremhRxor2r3OZe+0+6/odhAAzJkE71PIL0DqegLhTXh6UqaG8j7dBGsgSGgh6OxOmpOlkOJxYHPOEQXJF9T/QIvUoK5S7XPXzqckgXCGZhv6IgRrPqexNuzOXBIdGCcwSEZ9+V+cdQS8Nl8MRkTkCXiaLcJU60yt0qz5xLvp0zIaNqLqieoDuTnRb7VKg/rUxtG4lamahUqbNT4nMQiUyOvTR6jsjS51L/BKZnrnnVVGNJjBt2vnSG7VO2/YSgQ5UxEjYTW4sEAv1csItD3E4JIVkCMyWmGhBi4kKSknI8UnwPTfGMin4GU5xzh8K8IBEn4u8MVME1z6owNuQKSlEZYx8e6wkk3gs4f69qpK7fylRuUOe/czxJ6slFUNG43Wuvpspy7i+m+LuLda22OsdN6FgCK6T4Rua4s8UttVUhmfKSqjUvRSuScfwV7lNeHqX2phrdTX1RkkCyBIa8Z1KoK5VjUUw4jlbOgKOlUNAl4RpjV6aKtC45BnlcHCNzodykD9F5s3dckMdGlsPVrWZGWg7FSVb+ZooLY30w3Da7cIlIOIizcZwSRVvy+nNKhfOSTUXqmA4fcjEFcyKuZ56qDQUtiHOqRJxerFYh8U9lnRBsQ2Xs1PSBb0ty72XLXSp2bWCSRPkE307vUnWyC5o8lthSpiwG6RIYk2iKIkIie0iKut4HxZ6ziJNUiQloRZc4HxC52Fr9QwWqxvI6JZN3ujB9rsx9P7P9+4NqyLpxRQltni1Ik3MK42D/blgJhFRAYv2b/QwgRITFv8iXkQiiXVjyEpJIKopblTFVDkgKRCeuRJM53ZMggFWfpVrZpj4wXlxLYYMzySXL5HNmQzAky0EQ+aAp6L/Qp0GsZLEoqaRPDPkiuwWkcbTrA4TzSjgh7apOxoJgz6l4AISTm/yKJjxwbQ+HzLCR+ylQAKuIzahuzlenKpB6AmY/1MPtWs2yZ3NLVJzDKOQi2JeHwhIFbWSnBSOmuipkCwWrEnJ9JEh9pXvKutg+Elv7+vYQBBSCYwpIn1hFZEe79qwJ9Yifr3vLNigLPZCoHwv2QZJKd55J1tv3md+qOOw/qvafYMdY9o0oO4kG9Hq3Rsk74yDT5RT2jzupxMTxrgpel8aBuORXJ1RWUrlym0GoQgWim+oVjbARr2LW3tym+YmI5Y+rAjem47pW9YcV0a5mXMZioOPGEEb9yq2Rq9WzBfVkgKkqXgQ3xXYTqimXihIveeFOzjyE/Rc2GlX6PGIMQCHdpL23KaJIkuAeYRmMqor4m1S4WRGUIumr7t3JUhaDZAmMNeX4TtVGEsErs2d2jccJSEwJo6l32TErChnybLJbtbhyad7L9SVZprTxplyorJMfvG+DnSqOFfbGG1UlPiVYqAhYMFzCI90/1z5WsAxiSAfpAKQYyMbXx05Xc5tyK3KFFeBgVstQGVMg6aJENjojtPYgiO1zT5fciGMHrMbUBKyWMDYxz5cIDsFxcbbuzs+IK2kRyHA0VoQtY4JKz5ReNyfVKv2DbFIpy9EGUdNck1NX9J90J6JYGuMwfIVcbzN5gpeshJRukINVoEmthnPwdNo1Hw/EFK0r5Lnl8iCFawlZc4B9DlWIS6+b44UXHoMXvfwYtAYUjY12S52DoRzlvs5+SSaz3034iamHD4XLNpGYQxRd4j5dfLA4TGG9yT+MSCzpZsJQ0CTCa1bOYFEetsGcYZlBQqMjFSD2KcGKTxRQm/Kkcj4jcf8JadBTW5fNR3QnkWDDfP957tM4FzrWhDGyZ4KOWDxIV7zlVCw7ZQEmJnogUXnZf7Jhgq5DxJqQbwM51JyfLgU3EwKOMtlpmjAH4yMZA62h4xJktKywN9nl1A1qs5yRMwfUMaViNMA8nxkfuvbVeMXrTtSn9uyawLe/uBKfv/ZedCcZKnPcg0uyOVXu5or9iBBMCkTqh7LslgEQz3V1p0CGk3phu6qLsrCb225lNY3CkgszQl2FkeeAlQp00CxUnQzPOzi1hQgK9Toh+G5liqxwpq9ZyrnsdmSVlEfW1doDWLSRZAFNO05O5Dj9nCNx9TVn4eWvPR4Dgy29iFz75ytw3Rce41aHavNvu/fIA5VyOA7P1J9D8ybkEHDl8yxzokiWNLrN8uzemm4VtcufYjsx/LXkJ4w/V+7/aJYVybDoaFvBaZBfbfnkM45wxKXAnHkd/Mpvn41Pf+fnceGrj8PEWK8UwUqI3f0kg+S5BIhr5DmKy2qPieEbcBpknd6ULK9/hl8gAw4mZGwUbGvJ5zi3fVsXhYBzIcEBuXYXq765jyQX4Gl32D6uTeQzXayiDSHwVZD3h0wnOWaJlChr2bn6++RkjqE5HfznD1+Ea79yJV591UmauEAHoSr80m+cibHRHgX9J/7K30q0M0Wcqq0DmzpI9s0PZPlgP1IRxN2lhnQ5GCK35lXiZJhQq+E0yxlFyjOhFgm5hVD9YF5bfgzP69QW65jj5+FPP/Ea/PimNbj2T1Zgw7o9aLeVsyoIuc5Hp0htZFAR98HsgpLCsvo6y/KFViCSClGS+gnEnJ5bjsm0FMuCREYWCixksVwQNBuES4j7DYolA8CLa/IhYbtQYBYWTIDY1IwCbk88V8hqecH7dBlv+rcvwK//3rmYv3CgpkeBoTltyLEDyJ4Q+iqKnbEqco9gWCIOh6MKyhbkeGCkg2QJjHXPFqxy1LkwszjULUJ+C4lG3Wg34Fi38Jw9/vJLj8d5L1+Ku360Dv/v7+7Ho/dtweBwSz6AquXdS3XdN68NLOuVozJT5UOp5iHR+PW/bRa1MgSp4uQ6VTlVYP0N2za61/VHjT8PKikz4LWgFEkh1nrDz6f/EPRht8todwivecMyXP1bZ2LZqQunqFiA+pA34koCqed4SLVc2Fu0ESUtJKVLYCAWO+XHaynCluaFMriOKoTEXmOXDiuL++POssDlzrTeh8JZRPYyJCwGh1q46LITcMGrj8N//c2bcNft6zA8xzc5U8W7wxeQSKiX2PM9AVvDwn/DP6Y0sDHsfhhuPsOnA2UWVo6wVeEtNhErIe/1N7LgrzzNEpSGYcOPyadLYBVtilda9XIWDygN+UEWJteHJt7KOsspQ2qDFhWOic4VwXAaf/P51+GMcxc/Vxe6dxJRjdXLc0yiyPaHOcS1FkKv7lLM3jrlzXscK6nSRLI6GLhUy2TEBcsWkDM9IpCHSbAONl5EiCziuJsI0qwt/91Hx6dWS+FP/88lePvvnq3Hjc6ESb4UflR5OZw8U+10Ip53IiNy2Mx61uBVfrVmV6tzomDlJ7diUtBm/v1lCgGrlxFnSJw3c8jqFFje7+ph6+XVDOYK57VG/gprIvaLttVDCF2Me4K06tj3S12H5ArKVDo0MZ7jrPOW4JPfuvJ5ExcIvXmpw4nqKUKiXMoNsjUCZC0Rj0HDhrojpv9cu5PXKu7LeDuUkC6BMdHCnngI2UVJxazgXUnyqApBv3tVYGDLkIpYRQgmzr5geE4b17zvPHzim1fi3AuOxp6dk86bk0wuFkTKVl9RDpWi4XfzRYk6TnmtEIeUIKSRHEVmASblCKukEFJBqQ8oExIQPN8RuaC9PaGH6w+vxKUaxbZ8YCADcVAvUKzVMEUkraCdv2gAf/S3r8Rffe4yLDt1wT71nSsnwvYMCV45Pnz/CfJCkd5I/Hmekfx09C/ioL0TRMIiEu31N+CWcnFOTSEw+/ypwYCu2K3dKspK7V+vn3jyAnz4Hy7Fqie248t//xB+cN0zaLUtZ4Rocvh3BkGKrjQiwi6sT8UErEj5REcREbASn3+yMhJaqB8gWYLgoJ4YNplkhfYGRKZ0fKuae6lqqvZ0LCJKZr4zS+6Ao3cB42M9nHrWEbj6muW48DXHYWh4/4Y7ccBrmddR5X0xr1FHGCrjtKLrDhbL6j6ziSFdAhN1XhzTI68R7g9kI2Gj6F6Cn5Iy8jXoXfuOA40NUQo46bSFeP9fX4Qr3nwy/vZDd2LtM7u0aVS6fASbsNS/csrRJxUGTt6PCJi1aChQTTiDT+RVzavi2lPqtaz9Zoqy+DsrcX0174hDMcr3UVi7yNHSal263RwDAxl+58/O1+2btQ6QURdclSsfRXWqqzXLhUPoaJ4HOFC/pBvsmK6IpOE7XSmqsNnuGrMcKOVXHRIigjO7umeGIoo7Y1fSg9jdL3r5Unzin9+gxacsU5gcz32phc4jrC9F31ERC8iKTKizUMT3x74+AYsTECY50aRuKxRPwucrCuUCna4zKEvYf4g+A92Q8Tlx/jiif/IuU6/HuOqtp+Iz3/95XHn1qQdOXIJSirr7MyKM1aQdLYXeQM8FyLSo1baPCbPpP4bVBSSKZAlM2OYktoxFRBA84sTdRAjl6mgSBeyv9buh2kX6gDA41MIbrj4Fl7/5ZCw9fi4mxnPPD0QcDFFMAFEz+av3hn/B/RzrEmTzUYXAhu/07SPLGK7a8XX+Szi5GHvvP3tOSmf2Xd0uoyAuL3vNcfjla5ZjwaJ6n5b9BcnQgCkIfJVDiR0mp2qbcAER7Ujh+fSQrIgEZ4mIB3Gc95WDCRcnNZLOM2EuEal/MAZJYY452IvKvAUd/M4fvBi/+Z/OxTc/vxL/9L8flHV1dalPLi3BkLqkan4UjgmQ0D3JtoBoA+HJ5t7rn1dwH86qWs3Nh7rnA5WJxt4pOHKcDCoZmp2ZS8Jy5S+firdcc4Ym0NMB73AYj6+wrrLdqp9OihN1Cz9FmID5rDNyp4NkCcyU85utyRNMgbtrPABQ03EqOkexJ1rNsYOLgpt562+fiVe+/gR8+q/uwW3/+iyG57ZdvM2UjqIOoowsWS6Z+s5cyvGDlNiSIzzu7q24NwdcXrVUwd53Kpp0UcGd30pcjpq6gWl8pItzXnoU3vUH5+GUFyzah1bed3gOxlDDMD185XfgScjK2Quc70yciq9mTHp3mIbAzDg0P8GGloh4O/gVoaIApXj7z4AtR43qsd6hTogR04ZjT5yHP/zYK3H7jWvwlU8/Qk8+st1s41EdjvUqocAnr36HYwq/suBWKs+tsPOocCLV8lQ9dp1iXST2ss/gyjNrGpkZ3W6Ok19wBH7pnafjVa8/cerF5iBCiooQdJsiYiO45LADnO9OyLIQwnpL6HZSlLCKN2ECI/PzK4pXlJjDYD+BUJ1Y4VchJri0Jag8T83EoFbAK153vP578K7N+MRf3IUnH9mBgcFMrOUiFIKrIQ1h6etWSXmUQ7FmSipa4eDE/kN1UyXui6p3NSpiQvwUxvhojpPOWIB3/+GLcdaLn7+j3EGB1Y2ETRRlHnSXTv2YypGonWuqTgmHCiSr5PWMhHVGEquI20TMXeo8PSGsJVaPQ8KZTvpqGm8zKEiHMzgL1EyimFB/++XLcM5LF/P4aM9w4SS4saIuim2bSOOFvdT69UqrGYXtIRSR5dCILSEAAksKWaE0iLpG6Fwmwk+pbEuW/RCWAc4LVypzx0Z7WH7ekfhfX3rtzBMXTBFrpOIDwT0s742Vu2JsWuLBtt/IKN6lwv2gV2mGkCyBIR+eT5ChAraHyqsQupmL/jI+7tJ0GIfeOHFZPMte148ez1oKf/Txi+kt15yBvMfoTubC6iD97COSQZ4UEMR2DC4Rl/TQFdNcckPE/l3s/NnhGlIQPNumvjhwgRmGohDJNAXSxV7OPiadW6c49qu/cyb+/FOvQmcg60PLl9sGkBxPTmxC4LEsxhtREKRJ5TMcC+0sRiYgACQoa0B+ErZSJy0i+X8jZaANTnSBZgoiT7wKEjy43RYjVzGWFMZF9Zk3E/oWQT9nXhvvfN+5eO3PL8PXP7MSt3x3jY7y0wmuWKpQzSBWCExnLPQJLpVnlPJK+tcJQiUIrb+OyQdk2ndQJLyFu1laxZmtEdeKFN0eYWhI4cq3nYIrrz4Zx544Pdah5wcCVSIRKNJbwYRWMGSyS3g/gHJD/Br9FlkTGklnQnNdEyrQH0iOhGOdgkjjELK25CxLFKjXJB8a86ThhCJvtJ6hmtZj2WkL8N6/eCl+7T+ehX/4m/tx23efRafjY3g03CgWdQhGtlyDEZCR8Gx0L0Wrt7tKQq7xAnV5YWDFUaY8Z72B/evetAy//vtnY/7C+rw7Mw2aYqIrqUUxVjtyyeooINH634BsWzOCGIvyFezF2mmv4DQhXQIDT2F8IuvymJJEJUyMHZtW/Pn4ePCdhF7v0BKKFy8dxvv/+kJc9gvr8Ym/vBeb1o6g3VGyes46LL+XYPgdViMlg83WKK+NM6IIkLsGUYIoyWnWqJnda5nGR3Ocds4i/M4fvAinnTW9Zud9hmFhpGU/9qkiFSraiWquEzsnMJyaz5mkK+2CejqdCtIlMOQ5CekE5c+Ty4pPJisHBSICKttN+JvhnMM4uPLQISwxzr94Kf7u60vwjc88huu/+AR2bJ9AZ0A45FMoxpQotZTlVe4s+6QHLBW1zmhfcR8TDoB+8lmuyQilxodABWlmy38nx3OceOp8/NI7T8Orrzpxpppsn2DVWkryvXacAFUfI0zBlYgN+JRpHQQOjf5uiG1qU0WySl7HnDPJCA9hA9LWEg438FKsAsWlsLAEYhcxSZ2bnWCw8Utq77bIPmFgMMOvvOsF+PsbrsAFlyzFnl2TJjZGsdAiingZW2+vYFXCRBSEF4hdGgOhiKzyUipoyZlWdcKo8hNOPS7c57dvncCvvns5Pv611x66xCVuJ+NJ7I5pylM1ibG/0xBVF1vk2o6CEAsKYq8QhWqkiGQ5mEjtIr6y8FySLurkpalAtQ+40GqrcHS/WMpgXmnHh3aS1KHhFt734ZfilDMX4iufWgmVSb81O/P9ainXTQ42WrLXc8Dq16hbwiNGAVay/X67VdlsvS5j/qIO3v1H5+FVbzj+oLfBwQRbPsV6GgdSsufUvOe0TAvqEcR/V8IhhMxEldHd6GBmGiTzLQYuYlTjn+AFnAptCS6wq5FVzpj9TOKcv6pOrjq0MDSnhbe9azle9frj8am/uh93/nADdwYVtdsUiIluzxZWQb7fOj1K6EZc177ykOEuxWQhRdpZbnhuC1devQy/8q4zbELtQxqWe3Om+EB5Xsn77K6p6vXk73JzvnjjvFDP7i4/tAfbXpAsgRHrgbdEB2eFeRCh+VbShsgxU97t/TeqCpjnlZP3UMBxJ83Dh/73RXj84e10/ReexA+vW412J5PzxHmwM4TVQ0lmMNAoRAoYb7Fjp6nxcqmder1ervPdvOP3z8Lr3nKS3mkhLQi/IBGW4vV/ES8d79Zp3X3YmZ9Lt0MxttwYJeElzEh6Z8dkCYzNHCU3qHdigNNlCvORUEKSzBDntZJO51KKCdaXRtpozWiod904pHHq8oX4/T97MS5/8zJ88sP34ZmVO9EZMt3vKE0wa8pj7otvQ6cWiDYNM9Y8oektO2ZsLMflv3gifu33lmP+QU6jMFMg6YYrt8f1A0RQFBasiBDROfYV8ksVS22heYZ/QmqjzSNdAgMR3x8zkZ4OmJ8uQ6OzbSgR4BFaBWr8HQhVVU+ifb78vCPx0X+6BP/8+Sfw1U+vRN5lUEaxWqFGT+Da2O8C7UyuxLGDS54DE+M9OvWshfjtD5yD088+xMzO+4J4XFiP5Ug4D9iV+DMaQ37MGaocDTq2e4GmTF2SJjBUNZtWwHJekDAQCtGJhWtCTXQsUH1+mQoiOSbGodVWeMs7T8O5L12Mv/mvP8Ozz+zB3Hlt6SwUaBf9UaMil+1u1Q3CqVGHMGSEt/3OC/Dm3zxV++WkjjKSXVBY8o5wLLbIDRXhouXKMeOVW35DYUR+d95nKTJdp4hke55FJrZ4poucuoJBDaTlyAdGmqOr2hWKvqVLWkKcfs4i/PX/eyXe8Z4zdZ3yHtstoXwSbW87gzTdI1if/bGx0R5OPXMRPvKZi/HWf3/6rCAuGtKFP+h/HY4R+HGS27AiEHvIC1AkRKkqhLW/tGAlrISZJRyMl2dhnSVJqGLZRMtY+bl8ghWnKzEgVbW92PuLKEkdzFSYv2gAb/mt0/Dqq47HP3z0Qdx58wa09S4HCsJsL1VbkSWl/Dk5UZqd3/XBc3HxFcchy2ZLCxnUsW1utZI8nxiXQRuZJU5s0m85FHLuASHdIUuZqGbH/USQLIFRPoGltyNHahK3XkjBKOB6RIKlShY3gdpNQ5Pt81osPmYI7/+bl+DOm9fj0x95EJvWjWJwTiuaSOWH1+ECk+M9LXJd+daT8Mu/fTrmzj/0zc77gzLNBIWm/KmFcyDYAsdpXLw9mzi4P5C4K9yNajiYmUfJzNvMdlL4gYjtgIj1JefCTkHn+pQNHChiSMjRLmUVxekRZxdeeslSnHvBEvz01g345ueexJOP7sTAgHJRw3a17U7mmDOvhbe/+wxc+vPHY3ju7CQsJcJ0DHC6Ej1uuJ7DUM5SKYhIEI3lx5EURGGFzvI37y3x16GPhAmM381BBWkFQ9HHHTPf7Kbuciky94fLEcklSnG5rWf5nnL7k3Q7/bkwMJThFZcfi/MvPgof+c8/w123bsLchR3HzXS74FY7ow9+/EKccuY+7pKYKvQAUKHny145WedkKM1MoWuMlLoDMUu+Nm12OVkNnNwiQxIXBBxJeH2UB5aEVSDawRF21TIxbhxGYafjZ3dAGBxu4f/30fNx9b8/FZyXXMv4aA9nnX8E/fU/veLwIS6lmF0TC06Ry3Ow0wVFF8OlConGTrzVCVL2g4iQMgcjs7mFIo6/IvrOJhUkx8+gqRMrU4UTotSdE/YBQ8MtvP0/vABXvGUZnn16D+YtaOOk0+eXCa4OGxCqhKFCP7xNUlgmK08yeW+qz6obgKHxIkUkS2CkOEvCkclbhfwmGJJAQByQ19axJCRcwinyfzgcOBiJxUuH9N/hCmuiZ6nkZquTI+E1US4+ufALYun5K2JVOPLTcg415qcdfwnTl4QJjEmnayNZXecbRaTJXliNUBKbiFnuh4QDjCQbHCl6XXpNVed902A2gyocDNsUFE7dwgFn7MMFhENdIFApEShp1zgS77P0RiW8b0myBCa0SldTE7rDwcZfcFxMEGZgEfWj8iEGkE9viMthCBV7QojMC97pwZ+VFKUuXlbeyzJjosxLZOiXSlZVmi6BsUJsQeWVWUikJchzpKLPSm09k2KticnZG7Edo0L+Ocav1al5bO4GBiUfI9Jg30COHzG/KQxx9G4QPtLR0Q//DB8OSVIEJxa8tWWH9AWcMPeClAmMBQnBuDLpo/zKcH1piIuxCAWrCoS/Apt0DW6rPpZZq2agdg0OGQiTsnUTt7pcG1dkvMSllBMbHMPgI5fHS46rkKWWbjcpIlkCQ4bBiLeBCGxJLieVVbH4FUEJBX2sAxYvCe3TZLdc7/umAg1mEM5y6LSvCAaHjyKh6jgUOsLYKCQjDioGb89NVxfOhJAsgfEeSCQzXoZ6XCsVR3EzoSQdMroRT2syMYU9n65E3GC/oceA3cQezgwd2iPNeKroXUJzpGRKfF4YEcUu1Ya0t3CEQx/JEhjHqlKYa8Fmwg/ZGhIx8OXOg8Fa4zLuhz4vgHy01NU0LMzhBh/hTCLsBMESVxIDJTLFiCQXSpXcrzAXBN5bQhYi+dJ04xw10iUwVj0CREKuoC6h9sV/k1yMWI1qLg22ESInjlHSq0qDfQSZ5FpRFLUMHAgskkR1RyuLUp1lqRLzmPgwS5bAuE1fnQwkdWMcmJFcMpMg70KZdJnivKphjL33hRHamEZEOsygA5+pdJ1TbE2TbHOYOR2JUbaUyaVQtWP69JhM1pTgt6MyjjEc5o1Oe1ukdAkMUW5oQd10r3AxQhx2lCaKqa5yQ9aDKlDkPUeQfoNZCDKWRaHkJe8OEbLPLCybAISiRqSTcS4W1m4gxh0FeWYocQqTLIEpI5zjY2YhIeHSX+kdlqo1ucyIhSgwHQlTtt2J+PAIdmzgQcHu9+EI8TwIuwRotZy1EHt8+EC4dxdqRfV082YmS2D8fjRwHAvH2+C7GCKnhgsSgcNztS4TkA8PEMo4p6dh966ELYcN9hlyuaEoptpmei7Vu84cEKTYDAkNu10yOdr9UYQaBCJ/umMtWQIDYUUOgh4jIzQQRbfKwCXxDPJOdvINUeRrrIFrcLhAcjBR3igE+absbxLBRezHoXflhRuTNjC3yu2Q3cEh2dGWLIEhsYeyRHWtIKnpZVLhThOWx5maJZHisj/UcDCHF1w+IfgQAH+y/BDhRxyHLcGpe40orijam4trlsakfew0UjaIcNXOF5v25AWqbomYSlFjz7sHUPjmBocp6sdQGDwieeI4lj92rCNDRUg4WFSGr0p3xCXLwSBiUxHoTQKrst81TzjUoboXVnlt9IrSsq1kXEiDwxLEIJnGWxgLbDbviAkx+/77cQTFFClUrMla3sxBlDYnzcMkS2B8akLbKexPSLdrmd1duzF4pZzU0cjbywfK4EeOlHCNJ+/hBnJ2ahEcJF2mUGU9wp0qKAjM9WNLUZz2VSiFuSYRTVJImMCoQMcSbvtAYTo6hDvuVeXamh30POsrU1RV2dc+Y3Ski4GBbFamsNyycVxvbbvoqA5arf5K8y5UQAhCelwoTx0qirrKMSAyUbprvalaPNv935ipZxxuwptOjxiY4Lzs5HC1kPljhGrYP8uxufDysvne3wn90M+2458+9hS2bBjDoiUd/OI7T8RLLlmChHMTOWxeP4avfOIZ3H3HVp1s/MijB/Bf/uZs/dk/kLT6lEccQxNKPc55Tu9YET6Fazdl83FNwdv8WE529Uh4OJpoVhPZWO4dbM5QGF5vVh+219pz1jDgtyEhZy0wz+Dys9wbVGxX0vcV5R8/+ji2bhrX5dm+eRJ/+4FH+F++/Gy/i3XAWPvMCP7oN+/FXT/aqoNBCs5ly4YJvumf1/W1XOVY8IOmIBzlOFEcj6l4PFqXcnO9H2MqHG/2nnCcJm2lTpeDKeF1KABqNkULzEwU3xuoa7zBWvyiwAApgvLrU8bPEHbtmMTOrZNQennMtVPXvIVt+urfP401T+zBFW89DieeMkfnDk4Fo3u6uPm6jfj251djcrLcLZK51M+3WkTrnhnta/miLAti/DBVx1uFIyE47oU9B8RGWcxySx0xpmWS+USRLIEhcglzOejA8JoSTrT1cWUu4tURpyg/h3tGPGhKtQz1UfFGolxyG5aBwRbuunUbfnLTFpxy5lz8+vtOwfH/ZrhfxXxe2LF1El//9DNY8YPN6E4yspZCq53pc0HAYP/1nEyBdjccP6jZEkfcaj7je1BnjDAP56ppNEEkS2DcCiJogOVTAlddAYYqCQmhZtvOgNsJdhSw38vVRJWumn1eVeI9odikcSyYmoFBhVWPjeBP/t19fOkvLKU3/sbxmDv/0Orq8dEefvDNDfj259dgciJHq01od5TrGBmyAe4rw1gSdEXkOcLIRcL4RPhtTPwnKonnyQX1y9ATmJAWm5ZVjzPfuzNf6YOEQ2vU7QMoyLnh/P41VOw9ECwExBFjUkuO5AXByiT0Ov1FSBADCwcDKiv+iH747Q346S1bcPEVS3DxVUdhyTGDfStxga0bx7Hips246Z83YMfWCcOxCFnOcWZh//VbqY54t1CpX7F6FwqTR1GtxQhi/FD1GIXMixnLyVKYhAlM8Kv8iLnKQDQSy2HEgSIaL8EKhXDl8S/o54C36RopDA23q7/ITN9qAWMjOW748jp872vr8cZfPx6vffNSdAZmVkEzMZbje19dh+98YS3Gx3sYGMxCwlLTJ1HgTl9BpLxYHI4NLyRFkhxzvfYvuACBR2gZZ+B0MI4D6vtytr9ISA0YwmvXXZii6AbDlJJY/dyC77wvhUuldPX2aT/KXbP8fZ5boL7Ht5JY8Zw62iiSHCuvs7CVMb7tjmJShK9/ejU+8aHHtFgyUxjd3cO1f7gS3/i/q3WZBgczwQ4q60sWpeQ3fUfU/9j1WKdvf5eF9GrfcOM0JjuGhKZF3iPr7PqPpF5Qle3T78F2AEiWwJTuuARrGaRQZU8I8uaS09QTuzuMzk5BkYidFKZIsrvfmyFBkN5Wfe51IqeakLlDyZBaCjgCsrXHwFCGB+/cjr96z8N46pHd017M+1dsx5//7gN49J6dejN9mXGJJDfICPeLJ+9zEsy6PsB4iYut+gzjSFSJIxKjkcjbnP3YYXLjzWqN2SsT/bVSbG8c7fqAID2UhRJdY/LDkMykSybStexaz7ZQZKkQ16NO619xrppxlG9XLs+NTDYtE5TbrI4QuqrOYAtrnx7FR97zME5+wVxccfUxeOFFCw9a2SbHc9x8/Ubc/K2N2Lh2HO02oT3gLENBW0sGUebqodDY11chyRIOVGKbg2wMbtTY3Sm4wuSUil2O+k9ZIoPY0Tcel+khWQJDdbOffdpLTQC0FEBBKEE5H4Ua2HYoV7ZoM1xPrBgQL+sjRPoAeTTIM4IgaA7lgLYpAlTpDLbmiVF84k8ew/Lz5uOt716GpSccmBL47lu34eufXoNN68fR6Sj957RarlhCac41fWDLLXaN6KuQRKUClyiKorUkRihf/BaP8jIKnhUmr3PLgL9WRLgUlCdZ9iVlAiOW7pBQ2KEbuHA7Xoepohmtpx9u+5OIT/Irbp+lSyEQOh0hwoEb5xGWgXosIqs6nQyP3b8bf/nuh3Dpm47GG962VItS+4I1T4zgK59cjZX37tIm54KwwHGQdeuwLxxF9XFzjHBo6NRNuajSpmGEbFCPcN0LI9micyTYoIhrczLv9NZt+pAsgVFEFOw7A99xnj9hJy7AretsFE/+uFhCxYQNnlyysZXNCvoHI9MzsU+XFmQgcduTTpErzV5k/lUmaO97X1mvHfVedeUSvPzyI7FwcWfKMhTtce/t23DDF9dj9RMj2q2/PRBZhgK9hTGhk2x7VyJmMZGkWBuxA30BRSJMqUsJdqYOQqXtvuae+6IgbNZxmoh3HeCQw+G+G+gPCMkSGFSmiQfbnKdsdRHKJiJjOav8eC73s68wtUQhJ6+8nK36yrKjRrXtl1CnARCrKcmAUDfdiUsa5XXXWUfx7h09+tqnnuU7vr+V3vtXp01JZK77/LP41mfXYmgoQ9uZnM0qz+WzffuFEcMU7pJomEvbTxC6JOOT1nd7RFEfvxOSlDoVK59nSAwveGm8PEbldcyKlTJrA8XscZQOL/G91/rdaweIGh5a6Bx8x7hl3HcVR9o0L/v43mU/acrVxHNGh0SnE5NsAlcZYkEcywt8vhzD2lu+nCnIpFX8KojznPkt2rJhHP/9Pz7Cd/5ga/DaDWvGcO0HH8e/fGkDhua0QK0M0TPqtvVGmOOaBRtoXUzY+wi4qezOTVMjPm+IAUOiUhT64MXjSMitPgrbZCQiDq+VjyAvO6bMwyTLwRQSUlWXIlhREgo3f0G04gem3HCiKgT5ZKKlqO++ldI6FsrtQidDIoOaWT3d4LVEhsqWFDuFuSbJWgpjIzn940eexk1f34RlZwxj945J3HvHTl3/gmthk9GRUaMoiaxyxlzijjFx1B3RHDblLmXTQykfjNNowWWLkjFrwqDt9EmoM7VTEAwgh6N1aKKK92FaSJbAhKRFDMwg+YufR36xBKrLhb/VCcJcJ39Joay/nU5Oo+SZmHgoEkKtJIXLqCBEXgBxzSd2tOwMZli3agxrTURz1golBY414OweHKziJLlKFsGDYr76B0YEv99WO0kgxC4B5O2RnuNgDsYciepIsUia5h0piavueOc0kSyBsXk3KmNPyS06PeNB4sYSHE1LKykoz6q7GVFdRfptREJA/wQvJyco2Otf7HWOywsYMmdW8vu5mAqKEU9U097iAcK+bE7Ev0kqMSkw2bokTag6HtFeNn2YISilIiuQ0SVJbpDZDzbJ5QpGjkIbNSRT5Icfh6tjwkiWwJi9pQ0NiMIVy15j59FvF56CJ1fWscCkw2Tjpg44ZacbziJJuNxImCreEDOPQuKxGfcQcRJlEiSzOQ+blDdmK26WKkVHfISjSakcd8rfkMkI5pKVEPS7/LWW5BEUMfKKD4tNAWmVnN70RcEMDlaNvs8zFkGyzibpFiYlRE5XGzO0rCcwecbYSnx2HxNrb2BiFzpubNRcEfPTQrIExov3FOlKLKo0gCiIQBLEh210gWB4Iwcv9sPKBwL1B2SGK6Ktt61ToOQGyFFPe2VNu8RtR7Y92G6UK3aqc+8id0DqxYUelwMTK8tykkxXwFPSa5rie19QsxUXh+wJvAXaDTQWSlqnw/bGssANiFhwdcEm132v/P4iWQIDYXqlQDtmVxXTvwG3SW41cb4LXK5ANv8IC78R+2y3GaSdY0x95V3rJAm7XIaikLnOC4E162GoOJGciNMJCHoaOcG7O0kqMz1xEwoWEq8R04ohnfH8Kg6Zbzn2mpl5xPpquPqRV7Tb9jFjKvDACmogW9Dcz9aMHakAyZr90kSyBMYNv2gBsboCtx+1HRDKE5ngBiUGeTSIlDVgmCmqlB0Ih0AOIAoTUPuy6l9so1uYAiXrXohi1SGvEkJqm4trSFSoaonPBo8JrM6ODyLR2CSLVLZ932O/RCySVBGR4NRKSRR6+1Di4Di4Ru8F0TdBu5BV43g9YqJIl8AQ9WyOU7gVXJ4Xq2xMhMo7bAYxyMCd2OpI0WSxv599akwn2164uD2NtZwadnUnio+V8yDPybHi5PQcU4kisq1YtKXfxL3uPcETmCNRDdFKHXI9jiOSmeuC+sjnoe9SQpmiI06U6seMJJg+2loejBTeVJP/Bt4cnudCb5MwB5MwbcQmb/URKwAgMrVXJ6DcbaDcJcA701mUxxFkdA8NG4TJCca1f/AUnnx4ZPprGoEQ603C7wVRKLfLUObT5Q6Y4olK5tcRE9pmu5+iHKK9tZUl8BXxHI98B0UcEYm0GirYCSLI1N9X8rJlwwRUyydTCFcskYnOgaI/iHZVVjQMrBKyXZj9DhambTfNSEWnAckSGEX0ZLjdA7GfKBDBiHXbPxCkws6eV+GWJXo5N88On2O2sNi2aRIfe/9T+OkPt89o3dmVWbEsr5yQPgGXFS9Mlpj4r6wXu4nsz7FsN3mPio5riwnHhN2WT+m+cETK3Q9Ez2eEz7Q9XcpNqn8k5ntf3qTzHAcEL1jAbPuJNlLV9tCiqyegVLZLTFT9wqZUye4oqNV9q/wBIlkCA/C97ps1csqzNcp3QVKig5aJt3y7P8tcx52WW1UUq3arTfjix9bi4x94Cvf/ZNfBqNhzwnPk1fgpwRGQFE7iiJZIFUWVjb/24nhS9UrhqdLjkN0X3D2f6/KqyBJRJE45c/uMY+vGCXzuo2vw6D17oDIVlYCm/FEZYw4m0WJFDKTaBxn/AnR58pEDrUu/kKwOppv3vtfK2h+onok7loIpGXelPeN1DVR73VSgcgxg9WNj+Ic/W4XTz5uDX/ytpThm2fQm1zYpGe3+pSFVDHQW7jMIJAzTUdSYW4HnSKoVe1LXUQAhdsZ6caIp/MjqRL+Zc7PrdVnr11Z8fzvu+N42/W6TO7jimuB1VXH9qWLJjCRD8ZBqO0eX9FrUXnGQqjfjSJbAtNudn3COtUQ4tm51o3h7ToQBZxbmpwzFCYYLAdW0DvF7zOfAcIanHx7DR9/zFF72uoV4w9uXYO6C6Whict4npDx3QFPMc5I+vcSB5YJt5CNFDqki/Dz6LjkoN/l9VBEHZNuyiPH0s1/qikxSLRzTv2nEo/fsxrf+cSPWPjWmiYrKAgafQ37XfuGozCJRSDVMqQIryTv3APMWP055/WR3/N6DXdeZQrIEhoAREN0F5mO9HwwHK7LcTM37jkzhlCc9RJhNzhIIgaBuNsjBZd6ZAS1F+Mn3tuPu23bhvIvn46I3LMRx/+ZgcjTs9RawH3B1ZsSZ+DjgJXyuLu1tSyypi+dszGQyDcMha0/2We7N8lt1LkZXedmORVIqjix6Ps3ptCb4eurhEdzw/zbhsftH0BlUOvbK1jMofFAtjkRuDjgtF1tUIa0i/4t5R+AOEPZB8c+POq3OzGVoP8hIlsAg1yvEl6Ho58T0ct8gp4TcPiLOHObnD/wlduhEyVUr3IEccyE73OoozW7fedMOXnHTDnrpaxbgDW9fjHkLD0aTO4Wgc/SUjluBkEehRy0LgusUlM6vXbD9lnURzwmICAm+Zop2Qb1EYDJemycr4cAYKYYQiKsHVwkzMZ7jsftGcOt12/DYfbs1xzIwpBDSOKrQA18K5QkBR6xsxDkL4bXSKFQrBspWU1+ZMflwGpAsgSGVFR15C5BPFhKT6AS2zvx2skdBvRxESQqnUorVbuQnnnlwICqY2wRzG6Yf04aPrBw5d3xvOx5/YAT//kPH48ijp84S9/wbAMYqwVSvQQk9fuO6UfSkMu+0mEYkGKFAf+M5NtvQxvuuooUgT29lchhTZsH3hRNI0H4yCWsOrhZmdKSHz31kLe66dScWHNFGu5Ox8OlzbVaqt/xAYqeitnTHZbGRa5drS7IeugEvqepyKcIn3YoaQqmbUyYwyVqRlDYF0mqlsr+Xx6XpxFo7/afXB1Cg9BVcjeCCOVLAERC4clKwsLPjdMMBVXL+AwMKWzdM4u/+YDV+9sOdegU9ENjoOIBigiHL62B1AlR3gaW4zG4rKCK3y663fsiWks+ycVrVNAOSdpujvszVHnCPMV98mx6MSTY5keMn39+B//W+VVh53wgWLWkjM5sdyAkvibWzIorCsiwnyQa0fyHnHDK/9V5zFBOXgm7n2Z+qCbVJTSQ7TdPlYDplUupi3fyv+Wj+KgDnBN6f5rrKqirEISWyvHleJJgN5tM/kxFp/X3eJrcXsTynxOLb7hDGduf44sfW4xufUnj5FQtw2dVHah+LfYXxxxEblISvdmUN8uEEGRIMR0dChgzvDTn6UHcVrNgIXxww/e790Y7hJgfNFETG1ZHz59oe8bnBOfDQT3fjus9uwsa1kxgYoGBnS2IIZbmoiCW4FOnfBIURomZFmSs2sHCld3UOWBiqiIAE/IRb2Yf6YZ4/mEiWwFgQaHe7nf337mTvn0KGTGgbIsYz2IycKNTRQCpMZb97Yws4nLCOYZazS7tjeolDKgU7HUKeAzd/axvuumWX1s28+FXz9X7S+1BxTxuIarYhNVyakltomDqEkeHRxj6ynnXCl59dJOoW6B5IcjVmdbeCqZOZzHmO9GEh72cs8PuXNnLntq7WsRRtvHNLF60OYWBQJssSiliOxorrP3l9tCAFOwVUIzFsGzLCXD0EkgYJjqwQ5ov6M51qMGHxCLOBwKDMsPblbk+9F4yXWMUbs5V1w63w7S6BJNZk61AS5z8pB4Vcv6VlgNyRcoTI2Nky4C1ipsX1+ju32xmN7snx5Ws34NbrtuNN1yzB0mUDGJrzfDkaz8WUimoz6F2ZySVDgJyiRJ4Ti6xvbNM0VvZc8sKYZPJL8dMoRxVHxFekenAbI3GNormOI/LK6n3Nfzw2kuO267bhB1/fpgm5apHb7UAyQ2SILYc8V9l2ioLIfDbmLinaBYm8TM6acAzYq2RfOKJlKY0z2jnOGnQ7Q33nIOu1+4JkCUweqDCoR6C/AfEXda+yN6wGCQqYWNmEy2wUcWL1l4wOcSj2uG1LAs6GAolJQYnrEXoGU2UQu3W9M0DYsGYCn/zjZ3HS8iG84/3HYPA5iIyiWLMoCaJRGFrC4qw9nn/w3A9EuCG5hA7uWRwqeMubFQlKUtG2kN/AgVWZvUooOcglbXO3SOZL+uIYVsfqYp4Pdu3o4rMfXoenHh7F4JyWTnrl6wLR8qL/IClcqPiHE/NigU7UPRAdyX8Kkdm1K5c7WNg8PVJeFe3xkU5ffJcPPpIlMOPj8RH6VqZ4JYhON+JBNS+3G+fkMjCx5VCFPsZyNZJj99/lrOKAIWYxOL2VRORnZfdukZumRJaR3sTg6UdG8b/+8yr8wm8twfLz59TWvbgtL/c4ruy1Y98ZzgIhE8i9ompUH7asfnceNowOCa0NB9wIU9gs7OQe3wfSBqVjtMO+CApguUTZ0s+lg3n2qXHceeNOPHDHbuzemWNwOHO3cVQ3T5cjwhX4TcV7MtmFyXI1kS6rBoHF2q0vNvRBmpcEdWV6MKeBGyf3Wtt0kCyBGaz4rdEIs/qN3iTfAkLbeUWqeASQoCL+EEXCs7f9RgM7HPVREagiFTlFZ3CTy5ZXmdyqTdizM8c//uV6nHbuEH7uN47EMScNBK/ZumES3AMoi3ZFMLCb0k1hrgjKBWMKRmTKtpKNFCc43Gop5Ppi3QP2MvsodtyzjnZhY/j+I2zf3K31it22qYt/+cJm3HPrHq2vabVI/wXPicRXry/jqhWAJW+JgEJR+I/gOMIUdYAQAQO9lLxOeEp4JfyoYnonkO+pabUkkSyBmcL9+o4sU3+c5/lfQiSHNKsVKM4kRqH0wnJWESLLiU9C62dDnKfMheYFgzDUIXA0d6UVyEr0pTLymUfHcO0HnsUJpw7ilW9cgFPPGcLGZyfwtf+zSTvyEaLoonjJdPUG6rSFJBoimAd2glDuJz8YKpAySFTIaR/YtqqNvWCRsDvgtQKKHiqoSTJ75p0b10zituu34+KrFmqr0OrHx/CzH+zCXbfs1txAZ0AFvRU/l1hwJe4ixWyCzjnuP6qjmHAUUypuhUeQuALOC9n1LfkeKehmHr8H/MGMaYVePWYJpogWPvTxJ7/5dP2JnqJuL/8CCL/ixAaRzpErrl9CmAlGGSMcNIJl5njr04gaGQJEcotUOYMhlKtCbPKjkR2HYcWNyQnG4LDC2GiuV2iKg3REvmgAYWpQls+PTenWg5dDczyHitww439MZizRjMVN8u3AVWEnaBuSbnm+TchGUhOjN8mYuyDTzm/bN3U5axFlbVGegLjW9V95Li5fzHk6xa3cDNTnexcDiuvkw2AXBDve/BIiBoJM0qXwWZXxO6ZSNv3xZ06qPX6oI1kOZkqonDPF/45zGuGc3mEWC8/aUyzSex5feOwaZa7P4eu7nZxIxVNIBuZFgN2WsLq0+mXSeYjG4ZZw7yn+7wwS8h7Q7ohNa2s5lqie3rUtXr7DV0UrdjzQI2EOsTQF0UoUWdC4ynFalWfYclP0jdXCttqEsZFSQzQwpKpNH3CiFJQ3+CUsg6hLg+kbIZR5Ku+q8QIMflcDsIMjZduMAbhWKfzp3qPX08TsIzDl5NhNLVyTdzGHmd4qTmmUzLx3eTLbfzjLi12THP8Tm7WtJQCxDF0+Xriqkvmfquxz4AIS8QXiYdJRTWgWib2LReVeCsPGSchIgdA3RaQvR+4g5UNCqUbeyhxGXrteCK3gJubJtrePYA8F0VAaRShaOXGNCvHGJgIi4W7C2sJM4lkwu4D6djIPUtHveJyEpzyLWVXbhAZr2SEccsqESNdEhM8y83+p9sLsQLo+yM+F0jvz94jwAAWyi+VOWEoENkmdA7nrPGMrnKqsN0Ow6JJcsxzXHG2PGpaSIFf+KYmL5A48V0MUhgeSvFEOZK5//1QLJolV2FK/CkcTXm88Ogw5pqhdSKz1FH5WngX/jPi84AsgEvI530Cqea6x2lPU4AHPRTUhHjVlqy2vhiTmLImLvDlgXMwf382E/xY/bjZh9nEwAkTYCMWXIafvg+ls1McXeWWwWM68+sBPfpcW0q6jFc2ozd4mWXuxoVtsPZb3RkM5Jl6AY6kQHo0SdEd+JVEye89xyWsiTobl8/0LnbVJbu0i28apUoLjZo0XLAhz0MYBe0IQrgOIOCnyui0gFHe91c87TCJK3m7rKTm4gHeyoi+HLey5EqPCZt8/7PbmNiRECa4nFkg5kGh/wsxXAtiKWYxZTWBQDoINUHwpcvoGQK+IlaN6s0fEM9lzLxAKQpL7DllnNwRbHAo3cPkcv0E9BWfM8wNBgYN/A96LKsy4oADKP18hdBCUXJSVlwQfryj0+6BoxrPXurp2cT4/7P1WKNikzRIhQa7MexR5i4/Xe4n6k+QvOOgLR6lC5yJ7j1g/nqv/TGJ0DgzYkZqKbcu6dvCEhRzHE+8sat8lVyBJcBj4ASu8CT3sfM4BnDhmr4gkQdgE4DIi+l39nQQ/D88fk59C9j4ripTRcOQHj+eClI+3EZ+e04FJRu4z91sFsn2Hfy/EsBXHSMgOcImh2d1HSpuQA7GClBelgv/Cd7ky67BMW08hLNh6Re2i5POFnEGu/uF7IdsoqJOpac09VL6HA/lF/ykR7OnrUPKbQQ/upf/g+w8UJSAX9RAvLpXXYtzI/qO6Vla+LO4x/H9AfDkw+4kLDgcORmAMwCdArRvAvW8COFeuRHZpieNeKOYthMhBFIkTEYgQeaGIjVsJQQyM8Gvdy/ulBtlQL7dKmzcooVhV5MWfSESLFcqVeJ9IQRPEbQoxSoowVKewlXJenRYbjjcKNukU56xkFt7ujFSRlYqqCcJ9uSgQGSlqO1dc+QyK28mURQnuTbShrBqH1sY7Gfl7ofhHyOvHy2zE4URgLJ4G4TIC3U3AcYilnGBDZSGe2ChsM7pDccJdbWKY83ABFSmLjBKD/cypREK7NPrS+lHc43eB9tvcklVYmLeZ4jlHmlBh63Uf0opcBiOFphTJ4VOYaVZoMYVIY3UjxTvy0nKmotLZ1Z7ZltGRS2lUQkgPvTgnW5qkl4qXQLlsJlkVcv2HMrzCvyvoS9t/sPoYaeyK+w82wZhyxMiJcmWRRIUIvIbAlzEfHlyLxOEhIlWxiUGXMvhuGI4bclgRiYEpBBY7jSk8I0B+XDlmOSQABAS8OBCYWUhEULKQPqwc4GaP25ZU2kCcvlisu7Ie5hqxwtuEABTXpcJGhJ+eIHp36HKeCTNXpSSxWiKgw/HbKWp9RPWU0RxB/yEQbeD7grwqF44wkXypiQYlEaMuWUbRXxDUhCAVbEG8KMB3gvg1h4tIFONwJTAFVjKpC4jw52Ca9HI0nDsUOXu0t73Kz1BvADeQy1RsfvQDwSZdkO9yOhU5GaSVxOs/3GbTPnybqs8Regmv66FAcWrpldAWMGLdkfjtpxc5e7DX/8hjojxuogs+sKbOsny+3EJtQ/K9FOo6Ar2PSW8ZkUOSdvN4IzRj56/oT2yiUKEoqujXTLMoCvVccPZy7FLEfwzKXwHQ4zM5sA8lHM4EpkAXoD8EqSUK6o8BTEpCYEdPuA7KT7jF1ylxDZ9RDlol+RQxwZQfjMqvroGZSUxOUyad6EBOGOLgvJhQ4PCYJZbKl9Xcp8iWUU5+EkQTgvNCwJsJ3aogEmKik1GMUmQFsgTLXef/gGjCU9gsFUII085GaCGzhW34TqcxClJXBYuDYJBsGg+CqLPgasm+M1A0u/KPMvIPgnAsI//TYkwd/GGbDg53AmOxg0B/qoDziOj7AU8ScC4QnHudFUNw/uaYUsqvnJCzSGyHWA7eytau0ayTEoKxrngOR15L0lRDYiYFEpUXqYJ3eaoWrPgIyl/9jOriNEeICVBoYfPXlzksJOvC7rjkYGz7Kk9s/GfNUhD2kRd2hCgcc0dB//rnsiOYEO8GXNswcD2BXsjI/wKg3QjFvsMSh6OSd294EESXK+BNOfivCXSKO0OwXlUlYosIoeJyDiBMzxkqcym8L8wtU3kmV8pajeVB9AR7XHqYBVGHpbIyUETIZ+3F6mPvd/XxrjJ1V0bHI483GJrAgpPgQNKptkFdu5BUcFcaS7oMGZNcZVPMepog+4tLDs354JRK3pWs8F7k3e8A7ZoHHL5oOJgqiqHzDcU4jzJ8HIRRyZmY9TCwMJvjVo/BOh2LWWFZpOaHZLspfAZpjkTJiSft1v5aFazaLNh6yeKL7YzESmyPxBySEA/ke/U1fsGOxQg4kUtTRxXoRAA4Xx3JcejzSgXcmGw/WV9TTl8XorDuUZm8KSdsD6iwTqIvw2fA91+kOwcCJ1zXZ3sY+HiOyQtB9J3/j72ze9msKsP4da3neXMma3IKjXQO6qAPO1AwojLIcMCTwj6EIOikjsPDDhL6HzrwtJMgECGQPiQwGdQgBsKKUJMoKjMbg5lxUpl532ddsfdeH/dae2ujzp5m5P4N77zv87HXs9Z+9rr2ve51r3W7xTLHBea1OceN7iVxO4GfwKyELMZ0MI5BWPnIGTeaf9PMxMwjY0Y2ZXvr4sjJn2RmqO1tvRj85bky2WTM/fG3agetsassO7cY30vjgcntUOcItWWMv4xlV0P1zbjEnA+o1mmxHp3XpflMO9qbn+FyTu3eL+W7MMWOr4WuDDYy2pUemMU6TXj/eKcLn4zYvxfgmSUT03GB+d8QvyVxN4M+PVg2o9OOahySaK2HLDH5+NnroXUIp3CQuY+g1oHGauju/NbqYZ5rpXnd+CisOKX3B1oTpbubm04ZOkuIfZtTPduZJKOewGKd8k8w7cgSMy+78X/MInyrtdaeX6PZdbzTtGP+/bHxahdhugDqgRjirQqbewA8vTAacwzug7l4ToaArwL4uBS+AeAuQJ9A2Vo1lM2hcsYfZUHQkhPBdPRumG+Mk+nhQnRqe12zfY6tS6dYDmEhVBk2o6MpTq3QwPgxWvGznzXvbOMzgTM/R+ObQg5iQe3UxpFCK9aaW4BVWe0WxZy3p+gd7YPkRm6/v6neOZ0JTxLhp/uHXn1QB3gG0e/LF4sLzBvnKYbw3Qjdh6g7EfBtincBfGe+dk0g7Qjt7XvBF7zgG55julMbji90sXzT82z67mKoPEx37nmN/tm8u7FKsCwyJhiubSe7142z1fjS56em22y7tpGNrrArX51GNbVtGzI91Oh7eziG+P1N3D4BMYrz9jmvj0vxm2e4pn8Zt+ErCDgegF/kqzogOT/DOLQw927C2OvluXrnZjstnb0XzXRx6+QdvQPd10gTmzGbarbDn9xf2YvD6HGQ8S6JbSBcPbpxuNYOyjr4y+KYPTLK0/Jp6DU5v9WkPjBNCW3QIllWN6c6CXnFc1m6iGKXMNUvwAyhzDCpH+oF8ECb+DNtdBzEPQh6bNw+13lTuAXzlhmv718D+gLAj4Dhm4C+ToRj0zDJ2h72EGtNJCemzYaYRjMqclHX/2QzfxqtdFm2u6FAf6fPGfzLq2W5Ehu3rd32oBRr65veVFcaVHGyo7NSc5biym91pg9LbA6N1VTPoBrrbBo2muzV5iwRaL0/7C3AJg5oKuuv2uABCD8A47NjMiYfCr1lXGAuHbvR6Rf4HUbdF4k7CH6N0u0APwYgJeqRueZlfA/q/ANqfB91k6dujxGgzW3Aphulp1IHLWlhzSCDdpBRP7/GjcxXeVuDJ8sagdbRwrpa0pYLU27+jCkziVGl2u0XyoEZyvSDJS0lb20+cyx3Go5dIPXHCDyOqAcP3rF5HNJub1d2fXndL9u5OFxg1mEfwCPDj8atWnQTxLsJfBngZwDWjGoL17H6gULTqds1fjL2ifpO2BXQv1aCRpojzeO8me5SeimTAaEeHJbWKS41bvYeLqbxT/XsZ6Lyo96hg877bLeem0o/C/I3gn4Exp+D8QXEIHR+KefS4QKzPsP4/e8A7id4fySOUvgcwM8CuA3EpyC8y17hwQTGovPg2KhbtSZI29/U/pm2NC8F9EGzLV3Mjc0oMhtzzYWs6lOeTWtncbRQzzJaUtdYLkftErU9vSbW8nmGQSexw5ORekLbzWOIeEm9Ljqr4QJz+TlN8CGQD8WxQ+gIqdugcCeo4wBvhHATqSnmnOz6YflrYTJl2Xqw9kDtk+oHLw3sk+/aYq3EzY5WGwNUHMX1vcHs9dIVmP5sllTUZU2z6fGmcRdAnAH0bAx8hMKjgp7c24b/7A5im57WuWy4wPz/eQnAifTzvfGeH/B5gd8i+EVJR+1oQAqq+aJHWFOXMlsLZZtYIcfRlF2S0n8BJaNZnsKZ5l3GbIfl7RTb6WAUh3QK3pNKDvn0zvQrpH2XpgNz3hJT0kL4DdKc0LhZS67P2JwpC2MX/TsU8S8JD5P84avX4NHD54G4AbYHRpT7XfKcy4YLzJXJCYInFHHDZo8f3h3g5hD0UYm3grqF4PVmF0ugmUlBXQ5g4z0Cidj04un1oQdHGkNCZVYJzTRP6xliu+TBDMiSgk3BgU0kobFk5jNrtS3VsUxa9++gY/8U8HuCT0H4Qwj4k8RnBLxIuJFyJeICc2VzCsQpAL8aLQINGqHNMIQSdXNAOCbpAyRuAfBBADeKuAHAXhvhZpI60rpSc+h9naAWTLRrDhoUG2sgWynKM0FmQ13V+fVsOVlrI6XdtWWhTMkTOC/x3wBeIPBnEL8Dw/PaxedFPE3gH+NsHbOGLUQ4O1cULjBXHzsAf0s/tSNP3s09Au8ncAQB7xuECNSHABwTcR2BowCv5/TaewEcJrhJhklKsdsPW8yaHuPwBdv32gA+Y/LsyDGD/ivEKBxnEHRKEacDcVbAcwT+EgOeC8JpiKcR9GKM2N+gWFg+vLmKuWoF5o4vXffGDjCrgjFzcJbVQ3U6d+hFw9mJ805U1/9r3F0+RDNLw+Q1KAflz0cN1U9mQrUl6i3cTiUPVQgbIMZpdpqq09J2OUJZxyjsg2OnbTrl8PouLa1JNbqGwF4UrmXAEWh8/B4BhwG8e7CACO4BOpRafS1MdlZzUl9Of4wiIuAVAOcpnFPAyxTPRul8IM4B2Ne4WBAa2mMzS5dzonZ2uQhMNHlhMRe7/G0ebIDtTtil72ScXg+AxtgWpQf5/bF8L2MDpiRJ03GMpWLD3yFuxiN22+10IsdraQNpW68ghrFhw5UUcQjkZqi4uQhUXF4l2DHWGbbAt+ekFuU2puM4K+Gx0I7jrIYLjOM4q+EC4zjOarjAOI6zGi4wjuOshguM4zir4QLjOM5quMA4jrMaLjCO46yGC4zjOKvhAuM4zmq4wDiOsxouMI7jrIYLjOM4q+EC4zjOarjAOI6zGi4wjuOshguM4zir4QLjOM5quMA4jrMaLjCO46yGC4zjOKvhAuM4zmq4wDiOsxouMI7jrIYLjOM4q/HfAAAA///rEpKgcCwckAAAAABJRU5ErkJggg==;rounded=1;strokeColor=#121212;strokeWidth=2;align=center;arcSize=10;fontFamily=Helvetica;fontSize=11;fontColor=#ffffff;resizable=0;fillColor=#23A2D9;" parent="5PgPSH_vX1xo0LWpRoqR-11" vertex="1">
          <mxGeometry width="60" height="60" as="geometry" />
        </mxCell>
        <mxCell id="5PgPSH_vX1xo0LWpRoqR-14" value="" style="group;rounded=1;strokeColor=#121212;strokeWidth=2;align=center;verticalAlign=middle;arcSize=10;fontFamily=Helvetica;fontSize=11;fontColor=#ffffff;labelBackgroundColor=none;resizable=0;fillColor=#23A2D9;" parent="1" vertex="1" connectable="0">
          <mxGeometry x="-235" y="1940" width="240" height="120" as="geometry" />
        </mxCell>
        <object placeholders="1" c4Name="Airflow" c4Type="Container" c4Technology="Apache Airflow" c4Description="Планирование и оркестрация data пайплайнов" label="&lt;font style=&quot;font-size: 16px&quot;&gt;&lt;b&gt;%c4Name%&lt;/b&gt;&lt;/font&gt;&lt;div&gt;[%c4Type%: %c4Technology%]&lt;/div&gt;&lt;br&gt;&lt;div&gt;&lt;font style=&quot;font-size: 11px&quot;&gt;&lt;font color=&quot;#E6E6E6&quot;&gt;%c4Description%&lt;/font&gt;&lt;/div&gt;" id="5PgPSH_vX1xo0LWpRoqR-15">
          <mxCell style="rounded=1;whiteSpace=wrap;html=1;fontSize=11;labelBackgroundColor=none;fillColor=#23A2D9;fontColor=#ffffff;align=center;arcSize=10;strokeColor=#121212;metaEdit=1;resizable=0;points=[[0.25,0,0],[0.5,0,0],[0.75,0,0],[1,0.25,0],[1,0.5,0],[1,0.75,0],[0.75,1,0],[0.5,1,0],[0.25,1,0],[0,0.75,0],[0,0.5,0],[0,0.25,0]];strokeWidth=2;verticalAlign=middle;fontFamily=Helvetica;" parent="5PgPSH_vX1xo0LWpRoqR-14" vertex="1">
            <mxGeometry width="240" height="120" as="geometry" />
          </mxCell>
        </object>
        <mxCell id="5PgPSH_vX1xo0LWpRoqR-17" value="" style="shape=image;verticalLabelPosition=bottom;labelBackgroundColor=none;verticalAlign=middle;aspect=fixed;imageAspect=0;image=data:image/svg+xml,PHN2ZyB4bWxucz0iaHR0cDovL3d3dy53My5vcmcvMjAwMC9zdmciIHZpZXdCb3g9IjAgMCAxMjggMTI4Ij4mI3hhOzxwYXRoIGZpbGw9IiMwMTdjZWUiIGQ9Im0yLjU0NDEgMTI3IDYwLjgwOS02Mi4zMzJhMS4xMjQgMS4xMjQgMCAwIDAgMC4xMzU5LTEuNDM2OGMtMy42OTc3LTUuMTYyNS0xMC41MjEtNi4wNTc4LTEzLjA1LTkuNTI2OC03LjQ5MDMtMTAuMjc1LTkuMzkwOS0xNi4wOTItMTIuNjEtMTUuNzMxYTAuOTgzNzQgMC45ODM3NCAwIDAgMC0wLjU4NDY0IDAuMzA4NWwtMjEuOTY2IDIyLjUxOGMtMTIuNjM4IDEyLjk0NC0xNC40NTQgNDEuNDc1LTE0Ljc4MiA2NS4zNjdhMS4xOTA4IDEuMTkwOCAwIDAgMCAyLjA0NzMgMC44MzI3M3oiLz4mI3hhOzxwYXRoIGZpbGw9IiMwMGFkNDYiIGQ9Im0xMjYuOTkgMTI1LjQ2LTYyLjMzMi02MC44MTNhMS4xMjQgMS4xMjQgMCAwIDAtMS40Mzg5LTAuMTM1OWMtNS4xNjI1IDMuNjk5OC02LjA1NzggMTAuNTIxLTkuNTI2OCAxMy4wNS0xMC4yNzUgNy40OTAzLTE2LjA5MiA5LjM5MDktMTUuNzMxIDEyLjYxYTAuOTgzNzQgMC45ODM3NCAwIDAgMCAwLjMwODUgMC41ODI0OGwyMi41MTggMjEuOTY2YzEyLjk0NCAxMi42MzggNDEuNDc1IDE0LjQ1NCA2NS4zNjcgMTQuNzgyYTEuMTkwOCAxLjE5MDggMCAwIDAgMC44MzQ4OS0yLjA0MDh6Ii8+JiN4YTs8cGF0aCBmaWxsPSIjMDRkNjU5IiBkPSJtNjAuNzkyIDExMi43MmMtNy4wNzYtNi45MDM1LTEwLjM1NS0yMC41NTkgMy4yMDU4LTQ4LjcxOS0yMi4wNDYgOS44NTI1LTI5Ljc3MSAyMi44MDMtMjUuOTcyIDI2LjUxMXoiLz4mI3hhOzxwYXRoIGZpbGw9IiMwMGM3ZDQiIGQ9Im0xMjUuNDUgMS4wMTEzLTYwLjgwNyA2Mi4zMzJhMS4xMjE4IDEuMTIxOCAwIDAgMC0wLjEzNTkgMS40MzY4YzMuNjk5OCA1LjE2MjUgMTAuNTE5IDYuMDU3OCAxMy4wNSA5LjUyNjggNy40OTAzIDEwLjI3NSA5LjM5MyAxNi4wOTIgMTIuNjEgMTUuNzMxYTAuOTc5NDMgMC45Nzk0MyAwIDAgMCAwLjU4NDY0LTAuMzA4NWwyMS45NjYtMjIuNTE4YzEyLjYzOC0xMi45NDQgMTQuNDU0LTQxLjQ3NSAxNC43ODItNjUuMzY3YTEuMTkzIDEuMTkzIDAgMCAwLTIuMDQ5NS0wLjgzMjczeiIvPiYjeGE7PHBhdGggZmlsbD0iIzExZTFlZSIgZD0ibTExMi43MyA2Ny4yMTFjLTYuOTAzNSA3LjA3Ni0yMC41NTkgMTAuMzU1LTQ4LjcyMS0zLjIwNTggOS44NTI1IDIyLjA0NiAyMi44MDMgMjkuNzcxIDI2LjUxMSAyNS45NzJ6Ii8+JiN4YTs8cGF0aCBmaWxsPSIjZTQzOTIxIiBkPSJtMS4wMDE3IDIuNTQ5NSA2Mi4zMzIgNjAuODA3YTEuMTI0IDEuMTI0IDAgMCAwIDEuNDM2OCAwLjEzNTljNS4xNjI1LTMuNjk5OCA2LjA1NzgtMTAuNTIxIDkuNTI2OC0xMy4wNSAxMC4yNzUtNy40OTAzIDE2LjA5Mi05LjM5MDkgMTUuNzMxLTEyLjYxYTAuOTkwMjIgMC45OTAyMiAwIDAgMC0wLjMwODUtMC41ODQ2M2wtMjIuNTE4LTIxLjk2NmMtMTIuOTQ0LTEyLjYzOC00MS40NzUtMTQuNDU0LTY1LjM2Ny0xNC43ODJhMS4xOTA4IDEuMTkwOCAwIDAgMC0wLjgzMjczIDIuMDQ5NXoiLz4mI3hhOzxwYXRoIGZpbGw9IiNmZjc1NTciIGQ9Im02Ny4yMTIgMTUuMjg0YzcuMDc2IDYuOTAzNSAxMC4zNTUgMjAuNTU5LTMuMjA1OCA0OC43MjEgMjIuMDQ2LTkuODUyNSAyOS43NzEtMjIuODA1IDI1Ljk3Mi0yNi41MTF6Ii8+JiN4YTs8cGF0aCBmaWxsPSIjMGNiNmZmIiBkPSJtMTUuMjc5IDYwLjhjNi45MDM1LTcuMDc2IDIwLjU1OS0xMC4zNTUgNDguNzIxIDMuMjA1OC05Ljg1MjUtMjIuMDQ2LTIyLjgwMy0yOS43NzEtMjYuNTExLTI1Ljk3MnoiLz4mI3hhOzxjaXJjbGUgZmlsbD0iIzRhNDg0OCIgcj0iMi43MTgyIiBjeT0iNjMuOTk1IiBjeD0iNjQuMDA5Ii8+JiN4YTs8L3N2Zz4=;rounded=1;strokeColor=#121212;strokeWidth=2;align=center;arcSize=10;fontFamily=Helvetica;fontSize=11;fontColor=#ffffff;resizable=0;fillColor=#23A2D9;" parent="5PgPSH_vX1xo0LWpRoqR-14" vertex="1">
          <mxGeometry x="10" y="8.75" width="38" height="38" as="geometry" />
        </mxCell>
        <mxCell id="AYU3_ajaV-SyMRXWtslc-32" style="edgeStyle=orthogonalEdgeStyle;rounded=0;orthogonalLoop=1;jettySize=auto;html=1;exitX=1;exitY=0.5;exitDx=0;exitDy=0;exitPerimeter=0;entryX=0;entryY=0.5;entryDx=0;entryDy=0;entryPerimeter=0;strokeColor=#121212;strokeWidth=3;align=center;verticalAlign=middle;fontFamily=Helvetica;fontSize=11;fontColor=default;labelBackgroundColor=default;endArrow=classic;" parent="1" source="5PgPSH_vX1xo0LWpRoqR-12" target="5PgPSH_vX1xo0LWpRoqR-15" edge="1">
          <mxGeometry relative="1" as="geometry">
            <mxPoint x="113" y="1910" as="sourcePoint" />
            <mxPoint x="185" y="1910" as="targetPoint" />
            <Array as="points">
              <mxPoint x="-255" y="2000" />
              <mxPoint x="-255" y="2000" />
            </Array>
          </mxGeometry>
        </mxCell>
        <object placeholders="1" c4Name="БД Openmetadata" c4Type="Container" c4Technology="PostgreSQL" c4Description="БД метаданных" label="&lt;font style=&quot;font-size: 16px&quot;&gt;&lt;b&gt;%c4Name%&lt;/b&gt;&lt;/font&gt;&lt;div&gt;[%c4Type%:&amp;nbsp;%c4Technology%]&lt;/div&gt;&lt;br&gt;&lt;div&gt;&lt;font style=&quot;font-size: 11px&quot;&gt;&lt;font color=&quot;#E6E6E6&quot;&gt;%c4Description%&lt;/font&gt;&lt;/div&gt;" id="AYU3_ajaV-SyMRXWtslc-42">
          <mxCell style="shape=cylinder3;size=15;whiteSpace=wrap;html=1;boundedLbl=1;rounded=1;labelBackgroundColor=none;fillColor=#23A2D9;fontSize=11;fontColor=#ffffff;align=center;strokeColor=#121212;metaEdit=1;points=[[0.5,0,0],[1,0.25,0],[1,0.5,0],[1,0.75,0],[0.5,1,0],[0,0.75,0],[0,0.5,0],[0,0.25,0]];resizable=0;strokeWidth=2;verticalAlign=middle;arcSize=10;fontFamily=Helvetica;" parent="1" vertex="1">
            <mxGeometry x="-535" y="2200" width="240" height="120" as="geometry" />
          </mxCell>
        </object>
        <mxCell id="AYU3_ajaV-SyMRXWtslc-43" value="&lt;span style=&quot;font-size: 14px;&quot;&gt;[JDBC]&lt;/span&gt;" style="edgeStyle=orthogonalEdgeStyle;rounded=0;orthogonalLoop=1;jettySize=auto;html=1;exitX=0.5;exitY=1;exitDx=0;exitDy=0;exitPerimeter=0;entryX=0.5;entryY=0;entryDx=0;entryDy=0;entryPerimeter=0;strokeColor=#121212;strokeWidth=3;align=center;verticalAlign=middle;fontFamily=Helvetica;fontSize=11;fontColor=default;labelBackgroundColor=default;endArrow=classic;" parent="1" source="5PgPSH_vX1xo0LWpRoqR-12" target="AYU3_ajaV-SyMRXWtslc-42" edge="1">
          <mxGeometry relative="1" as="geometry">
            <mxPoint x="-425" y="2090" as="sourcePoint" />
            <mxPoint x="-425" y="2150" as="targetPoint" />
          </mxGeometry>
        </mxCell>
        <mxCell id="AYU3_ajaV-SyMRXWtslc-45" value="&lt;b&gt;&lt;font style=&quot;font-size: 16px;&quot;&gt;Подсистема управления ключами шифрования&lt;/font&gt;&lt;/b&gt;" style="text;html=1;align=center;verticalAlign=middle;whiteSpace=wrap;rounded=0;fontSize=14;" parent="1" vertex="1">
          <mxGeometry x="1116" y="1870" width="288" height="30" as="geometry" />
        </mxCell>
        <mxCell id="5PgPSH_vX1xo0LWpRoqR-7" value="" style="group;rounded=1;strokeColor=#121212;strokeWidth=2;align=center;verticalAlign=middle;arcSize=10;fontFamily=Helvetica;fontSize=11;fontColor=#ffffff;labelBackgroundColor=none;resizable=0;fillColor=#23A2D9;" parent="1" vertex="1" connectable="0">
          <mxGeometry x="1135" y="1940" width="240" height="120" as="geometry" />
        </mxCell>
        <object placeholders="1" c4Name="Vault" c4Type="Container" c4Technology="Hashicorp Vault" c4Description="Хранение ключей шифрования, секретов" label="&lt;font style=&quot;font-size: 16px&quot;&gt;&lt;b&gt;%c4Name%&lt;/b&gt;&lt;/font&gt;&lt;div&gt;[%c4Type%: %c4Technology%]&lt;/div&gt;&lt;br&gt;&lt;div&gt;&lt;font style=&quot;font-size: 11px&quot;&gt;&lt;font color=&quot;#E6E6E6&quot;&gt;%c4Description%&lt;/font&gt;&lt;/div&gt;" id="5PgPSH_vX1xo0LWpRoqR-6">
          <mxCell style="rounded=1;whiteSpace=wrap;html=1;fontSize=11;labelBackgroundColor=none;fillColor=#23A2D9;fontColor=#ffffff;align=center;arcSize=10;strokeColor=#121212;metaEdit=1;resizable=0;points=[[0.25,0,0],[0.5,0,0],[0.75,0,0],[1,0.25,0],[1,0.5,0],[1,0.75,0],[0.75,1,0],[0.5,1,0],[0.25,1,0],[0,0.75,0],[0,0.5,0],[0,0.25,0]];strokeWidth=2;verticalAlign=middle;fontFamily=Helvetica;" parent="5PgPSH_vX1xo0LWpRoqR-7" vertex="1">
            <mxGeometry width="240" height="120" as="geometry" />
          </mxCell>
        </object>
        <mxCell id="5PgPSH_vX1xo0LWpRoqR-5" value="" style="shape=image;verticalLabelPosition=bottom;labelBackgroundColor=none;verticalAlign=middle;aspect=fixed;imageAspect=0;image=data:image/svg+xml,PHN2ZyB4bWxucz0iaHR0cDovL3d3dy53My5vcmcvMjAwMC9zdmciIHZpZXdCb3g9IjAgMCAxMjggMTI4Ij48cGF0aCBkPSJtMCAxLjk1MyA2My43NiAxMjQuMDk0TDEyOCAxLjk1M1ptNTMuODQxIDQ5LjI1NEg0My42ODRWNDEuMDZINTMuODR6bTAtMTUuMjI3SDQzLjY4NFYyNS44MjJINTMuODRaTTY5LjA4IDY2LjQ0NEg1OC45N1Y1Ni4yODZoMTAuMTA4em0wLTE1LjIzN0g1OC45N1Y0MS4wNmgxMC4xMDh6bTAtMTUuMjI3SDU4Ljk3VjI1LjgyMmgxMC4xMDhabTE1LjE0NyAxNS4yMjdINzQuMDI3VjQxLjA2aDEwLjE1OVpNNzQuMDI3IDM1Ljk4VjI1LjgyMmgxMC4xNTlWMzUuOTh6IiBmaWxsPSIjZmZkODE0Ii8+PC9zdmc+;rounded=1;strokeColor=#121212;strokeWidth=2;align=center;arcSize=10;fontFamily=Helvetica;fontSize=11;fontColor=#ffffff;resizable=0;fillColor=#23A2D9;" parent="5PgPSH_vX1xo0LWpRoqR-7" vertex="1">
          <mxGeometry x="20" y="13.25" width="38" height="38" as="geometry" />
        </mxCell>
        <mxCell id="AYU3_ajaV-SyMRXWtslc-47" value="&lt;span style=&quot;font-size: 20px;&quot;&gt;&lt;b&gt;Централизованная платформа управления данными&lt;/b&gt;&lt;/span&gt;" style="rounded=1;whiteSpace=wrap;html=1;strokeColor=none;" parent="1" vertex="1">
          <mxGeometry x="157.5" y="1750" width="565" height="70" as="geometry" />
        </mxCell>
        <mxCell id="AYU3_ajaV-SyMRXWtslc-13" value="" style="rounded=1;whiteSpace=wrap;html=1;strokeColor=#121212;strokeWidth=1;align=center;verticalAlign=middle;fontFamily=Helvetica;fontSize=12;fontColor=default;fillColor=default;" parent="1" vertex="1">
          <mxGeometry x="1195" y="1085" width="320" height="445" as="geometry" />
        </mxCell>
        <object placeholders="1" c4Name="lab-srv" c4Type="Container" c4Technology="Java" c4Description="Сервис взаимодействия с лабораторией" label="&lt;font style=&quot;font-size: 16px&quot;&gt;&lt;b&gt;%c4Name%&lt;/b&gt;&lt;/font&gt;&lt;div&gt;[%c4Type%: %c4Technology%]&lt;/div&gt;&lt;br&gt;&lt;div&gt;&lt;font style=&quot;font-size: 11px&quot;&gt;&lt;font color=&quot;#E6E6E6&quot;&gt;%c4Description%&lt;/font&gt;&lt;/div&gt;" id="P_pMKJ1h1y2e1TrNMvNP-66">
          <mxCell style="rounded=1;whiteSpace=wrap;html=1;fontSize=11;labelBackgroundColor=none;fillColor=#23A2D9;fontColor=#ffffff;align=center;arcSize=10;strokeColor=#121212;metaEdit=1;resizable=0;points=[[0.25,0,0],[0.5,0,0],[0.75,0,0],[1,0.25,0],[1,0.5,0],[1,0.75,0],[0.75,1,0],[0.5,1,0],[0.25,1,0],[0,0.75,0],[0,0.5,0],[0,0.25,0]];strokeWidth=2;verticalAlign=middle;fontFamily=Helvetica;" parent="1" vertex="1">
            <mxGeometry x="1235" y="1175" width="240" height="120" as="geometry" />
          </mxCell>
        </object>
        <object placeholders="1" c4Name="lab-db" c4Type="Container" c4Technology="PostgreSQL" c4Description="База данных для анализов" label="&lt;font style=&quot;font-size: 14px&quot;&gt;&lt;b&gt;%c4Name%&lt;/b&gt;&lt;/font&gt;&lt;div&gt;[%c4Type%:&amp;nbsp;%c4Technology%]&lt;/div&gt;&lt;br&gt;&lt;div&gt;&lt;font style=&quot;font-size: 11px&quot;&gt;&lt;font color=&quot;#E6E6E6&quot;&gt;%c4Description%&lt;/font&gt;&lt;/div&gt;" id="AYU3_ajaV-SyMRXWtslc-6">
          <mxCell style="shape=cylinder3;size=15;whiteSpace=wrap;html=1;boundedLbl=1;rounded=1;labelBackgroundColor=none;fillColor=#23A2D9;fontSize=11;fontColor=#ffffff;align=center;strokeColor=#121212;metaEdit=1;points=[[0.5,0,0],[1,0.25,0],[1,0.5,0],[1,0.75,0],[0.5,1,0],[0,0.75,0],[0,0.5,0],[0,0.25,0]];resizable=0;strokeWidth=2;verticalAlign=middle;fontFamily=Helvetica;arcSize=10;" parent="1" vertex="1">
            <mxGeometry x="1235" y="1368.25" width="240" height="120" as="geometry" />
          </mxCell>
        </object>
        <mxCell id="AYU3_ajaV-SyMRXWtslc-9" style="edgeStyle=orthogonalEdgeStyle;rounded=1;orthogonalLoop=1;jettySize=auto;html=1;endSize=8;startSize=8;exitX=0.5;exitY=1;exitDx=0;exitDy=0;exitPerimeter=0;entryX=0.5;entryY=0;entryDx=0;entryDy=0;entryPerimeter=0;strokeColor=#121212;strokeWidth=1;align=center;verticalAlign=middle;fontFamily=Helvetica;fontSize=12;fontColor=default;fillColor=default;" parent="1" source="P_pMKJ1h1y2e1TrNMvNP-66" target="AYU3_ajaV-SyMRXWtslc-6" edge="1">
          <mxGeometry relative="1" as="geometry">
            <mxPoint x="1505" y="1287.5" as="sourcePoint" />
            <mxPoint x="1505" y="1397.5" as="targetPoint" />
          </mxGeometry>
        </mxCell>
        <mxCell id="AYU3_ajaV-SyMRXWtslc-10" value="&lt;font style=&quot;font-size: 14px;&quot;&gt;[JDBC]&lt;/font&gt;" style="edgeLabel;html=1;align=center;verticalAlign=middle;resizable=0;points=[];rounded=1;strokeColor=#121212;strokeWidth=1;fontFamily=Helvetica;fontSize=12;fontColor=default;fillColor=default;" parent="AYU3_ajaV-SyMRXWtslc-9" connectable="0" vertex="1">
          <mxGeometry x="0.2629" y="4" relative="1" as="geometry">
            <mxPoint x="-4" y="-13" as="offset" />
          </mxGeometry>
        </mxCell>
        <mxCell id="AYU3_ajaV-SyMRXWtslc-14" value="&lt;b&gt;&lt;font style=&quot;font-size: 16px;&quot;&gt;Группа сервисов&lt;/font&gt;&lt;/b&gt;&lt;div&gt;&lt;b&gt;&lt;font style=&quot;font-size: 16px;&quot;&gt;интеграции&lt;/font&gt;&lt;/b&gt;&lt;/div&gt;" style="text;html=1;align=center;verticalAlign=middle;whiteSpace=wrap;rounded=0;fontSize=12;fontFamily=Helvetica;fontColor=default;" parent="1" vertex="1">
          <mxGeometry x="1250" y="1105" width="210" height="40" as="geometry" />
        </mxCell>
        <mxCell id="3Bt5Y8izVNLE5KInnQgE-1" value="" style="rounded=1;whiteSpace=wrap;html=1;strokeColor=#121212;strokeWidth=1;align=center;verticalAlign=middle;fontFamily=Helvetica;fontSize=12;fontColor=default;fillColor=default;" parent="1" vertex="1">
          <mxGeometry x="1085" y="2120" width="340" height="250" as="geometry" />
        </mxCell>
        <mxCell id="3Bt5Y8izVNLE5KInnQgE-2" value="&lt;b&gt;&lt;font style=&quot;font-size: 16px;&quot;&gt;Подсистема архивирования и удаления по тегам&lt;/font&gt;&lt;/b&gt;" style="text;html=1;align=center;verticalAlign=middle;whiteSpace=wrap;rounded=0;fontSize=14;" parent="1" vertex="1">
          <mxGeometry x="1116" y="2140" width="288" height="30" as="geometry" />
        </mxCell>
        <object placeholders="1" c4Name="archive-srv" c4Type="Container" c4Technology="Сервис архивирования данных" c4Description="Сервис архива" label="&lt;font style=&quot;font-size: 16px&quot;&gt;&lt;b&gt;%c4Name%&lt;/b&gt;&lt;/font&gt;&lt;div&gt;[%c4Type%: %c4Technology%]&lt;/div&gt;&lt;br&gt;&lt;div&gt;&lt;font style=&quot;font-size: 11px&quot;&gt;&lt;font color=&quot;#E6E6E6&quot;&gt;%c4Description%&lt;/font&gt;&lt;/div&gt;" id="3Bt5Y8izVNLE5KInnQgE-3">
          <mxCell style="rounded=1;whiteSpace=wrap;html=1;fontSize=11;labelBackgroundColor=none;fillColor=#23A2D9;fontColor=#ffffff;align=center;arcSize=10;strokeColor=#121212;metaEdit=1;resizable=0;points=[[0.25,0,0],[0.5,0,0],[0.75,0,0],[1,0.25,0],[1,0.5,0],[1,0.75,0],[0.75,1,0],[0.5,1,0],[0.25,1,0],[0,0.75,0],[0,0.5,0],[0,0.25,0]];strokeWidth=2;verticalAlign=middle;fontFamily=Helvetica;" parent="1" vertex="1">
            <mxGeometry x="1135" y="2200" width="240" height="120" as="geometry" />
          </mxCell>
        </object>
        <object placeholders="1" c4Name="Архив" c4Type="Software System" c4Description="Система хранения архивов" label="&lt;font style=&quot;font-size: 16px&quot;&gt;&lt;b&gt;%c4Name%&lt;/b&gt;&lt;/font&gt;&lt;div&gt;[%c4Type%]&lt;/div&gt;&lt;br&gt;&lt;div&gt;&lt;font style=&quot;font-size: 11px&quot;&gt;&lt;font color=&quot;#cccccc&quot;&gt;%c4Description%&lt;/font&gt;&lt;/div&gt;" id="3Bt5Y8izVNLE5KInnQgE-4">
          <mxCell style="rounded=1;whiteSpace=wrap;html=1;labelBackgroundColor=none;fillColor=#8C8496;fontColor=#ffffff;align=center;arcSize=10;strokeColor=#000000;metaEdit=1;resizable=0;points=[[0.25,0,0],[0.5,0,0],[0.75,0,0],[1,0.25,0],[1,0.5,0],[1,0.75,0],[0.75,1,0],[0.5,1,0],[0.25,1,0],[0,0.75,0],[0,0.5,0],[0,0.25,0]];strokeWidth=3;verticalAlign=middle;fontFamily=Helvetica;fontSize=12;" parent="1" vertex="1">
            <mxGeometry x="1760" y="2185" width="240" height="120" as="geometry" />
          </mxCell>
        </object>
        <mxCell id="3Bt5Y8izVNLE5KInnQgE-5" style="edgeStyle=orthogonalEdgeStyle;rounded=0;orthogonalLoop=1;jettySize=auto;html=1;exitX=1;exitY=0.5;exitDx=0;exitDy=0;entryX=0;entryY=0.5;entryDx=0;entryDy=0;entryPerimeter=0;strokeColor=#121212;strokeWidth=3;align=center;verticalAlign=middle;fontFamily=Helvetica;fontSize=11;fontColor=default;labelBackgroundColor=default;endArrow=classic;" parent="1" source="3Bt5Y8izVNLE5KInnQgE-1" target="3Bt5Y8izVNLE5KInnQgE-4" edge="1">
          <mxGeometry relative="1" as="geometry" />
        </mxCell>
      </root>
    </mxGraphModel>
  </diagram>
</mxfile>
